# Blender 5.0.1
# www.blender.org
mtllib bullet.mtl
o Cube
v 0.182162 0.126404 -0.000000
v 0.182162 -0.126404 -0.000000
v 0.000000 0.126404 0.182162
v 0.000000 -0.126404 0.182162
v -0.000000 0.126404 -0.182162
v -0.000000 -0.126404 -0.182162
v -0.182162 0.126404 0.000000
v -0.182162 -0.126404 0.000000
v 0.000000 -1.042543 0.000000
v -0.000000 0.240996 -0.091072
v 0.000000 0.240996 0.091072
v 0.091072 0.240996 -0.000000
v -0.091072 0.240996 0.000000
vn -0.6164 0.4900 -0.6164
vn -0.7071 -0.0000 0.7071
vn -0.7071 -0.0000 -0.7071
vn -0.7002 -0.1392 -0.7002
vn 0.7071 -0.0000 0.7071
vn 0.7071 -0.0000 -0.7071
vn 0.6164 0.4900 0.6164
vn 0.7002 -0.1392 0.7002
vn 0.7002 -0.1392 -0.7002
vn -0.7002 -0.1392 0.7002
vn -0.0000 1.0000 -0.0000
vn 0.6164 0.4900 -0.6164
vn -0.6164 0.4900 0.6164
vt 0.625000 0.000000
vt 0.625000 0.250000
vt 0.625000 0.750000
vt 0.375000 1.000000
vt 0.375000 0.750000
vt 0.375000 0.250000
vt 0.375000 0.000000
vt 0.625000 0.500000
vt 0.375000 0.500000
vt 0.875000 0.500000
vt 0.625000 1.000000
vt 0.875000 0.750000
s 0
usemtl Material
f 7/1/1 10/2/1 5/2/1
f 3/3/2 8/4/2 4/5/2
f 7/1/3 6/6/3 8/7/3
f 8/7/4 6/6/4 9/7/4
f 1/8/5 4/5/5 2/9/5
f 5/2/6 2/9/6 6/6/6
f 1/8/7 11/3/7 3/3/7
f 2/9/8 4/5/8 9/9/8
f 6/6/9 2/9/9 9/6/9
f 4/5/10 8/4/10 9/5/10
f 10/10/11 11/3/11 12/8/11
f 5/2/12 12/8/12 1/8/12
f 3/3/13 13/11/13 7/11/13
f 7/1/1 13/1/1 10/2/1
f 3/3/2 7/11/2 8/4/2
f 7/1/3 5/2/3 6/6/3
f 1/8/5 3/3/5 4/5/5
f 5/2/6 1/8/6 2/9/6
f 1/8/7 12/8/7 11/3/7
f 10/10/11 13/12/11 11/3/11
f 5/2/12 10/2/12 12/8/12
f 3/3/13 11/3/13 13/11/13
