# Blender 5.0.1
# www.blender.org
mtllib pickaxe.mtl
o Cube
v 0.014429 0.306747 -0.014429
v -0.251528 0.189183 0.000000
v 0.037048 0.293170 -0.037048
v 0.014429 -0.306747 -0.014429
v -0.050306 0.226268 -0.025910
v 0.037048 0.217160 -0.037048
v -0.100611 0.223796 -0.023762
v 0.014429 0.306747 0.014429
v -0.150917 0.217412 -0.021372
v -0.201222 0.205407 -0.017103
v 0.037048 0.293170 0.037048
v 0.014429 -0.306747 0.014429
v -0.050306 0.282095 0.025910
v 0.037048 0.217160 0.037048
v -0.014429 0.306747 -0.014429
v -0.100611 0.278465 0.023762
v -0.037048 0.293170 -0.037048
v -0.150917 0.268627 0.021372
v -0.014429 -0.306747 -0.014429
v -0.201222 0.246190 0.017103
v -0.037048 0.217160 -0.037048
v -0.201222 0.205407 0.017103
v -0.150917 0.217412 0.021372
v -0.014429 0.306747 0.014429
v -0.100611 0.223796 0.023762
v -0.037048 0.293170 0.037048
v -0.050306 0.226268 0.025910
v -0.014429 -0.306747 0.014429
v -0.037048 0.217160 0.037048
v 0.014429 0.217160 0.014429
v -0.201222 0.246190 -0.017103
v -0.150917 0.268627 -0.021372
v 0.014429 0.293170 0.014429
v -0.100611 0.278465 -0.023762
v -0.014429 0.217160 0.014429
v -0.050306 0.282095 -0.025910
v -0.014429 0.293170 0.014429
v -0.014429 0.217160 -0.014429
v -0.014429 0.293170 -0.014429
v 0.251528 0.189183 0.000000
v 0.014429 0.217160 -0.014429
v 0.050306 0.226268 -0.025910
v 0.014429 0.293170 -0.014429
v 0.100611 0.223796 -0.023762
v 0.150917 0.217412 -0.021372
v 0.201222 0.205407 -0.017103
v 0.050306 0.282095 0.025910
v 0.100611 0.278465 0.023762
v 0.150917 0.268627 0.021372
v 0.201222 0.246190 0.017103
v 0.201222 0.205407 0.017103
v 0.150917 0.217412 0.021372
v 0.100611 0.223796 0.023762
v 0.050306 0.226268 0.025910
v 0.201222 0.246190 -0.017103
v 0.150917 0.268627 -0.021372
v 0.100611 0.278465 -0.023762
v 0.050306 0.282095 -0.025910
v -0.037048 0.282095 -0.025910
v -0.037048 0.282095 0.025910
v -0.037048 0.226786 0.025910
v -0.037048 0.226786 -0.025910
v 0.037048 0.282095 0.025910
v 0.037048 0.282095 -0.025910
v 0.037048 0.226786 0.025910
v 0.037048 0.226786 -0.025910
v 0.000000 0.306747 0.000000
v 0.000000 0.299958 0.014429
v 0.000000 -0.044793 0.014429
v -0.014429 0.299958 0.000000
v -0.014429 -0.044793 0.000000
v 0.000000 -0.306747 0.000000
v 0.014429 0.299958 0.000000
v 0.014429 -0.044793 0.000000
v 0.000000 0.299958 -0.014429
v 0.000000 -0.044793 -0.014429
v -0.028803 0.293170 0.000000
v 0.028803 0.293170 -0.000000
v 0.000000 0.255165 0.037048
v -0.037048 0.254819 0.031669
v -0.037048 0.221250 0.000000
v 0.000000 0.217160 -0.028803
v 0.000000 0.217160 0.028803
v 0.037048 0.254819 -0.031669
v 0.037048 0.221250 0.000000
v 0.000000 0.255165 -0.037048
v -0.220256 0.224621 0.000000
v -0.225929 0.207821 0.008703
v -0.225929 0.207821 -0.008703
v -0.175952 0.234451 -0.019247
v -0.125725 0.247082 -0.022569
v -0.075445 0.252657 -0.024837
v -0.043682 0.254311 -0.025910
v -0.220251 0.199270 0.000000
v -0.174862 0.211698 0.000000
v -0.125134 0.220684 -0.000000
v -0.074918 0.225058 0.000000
v -0.043677 0.226527 0.000000
v -0.043682 0.254311 0.025910
v -0.075445 0.252657 0.024837
v -0.125725 0.247082 0.022569
v -0.175952 0.234451 0.019247
v -0.043677 0.282095 -0.000000
v -0.074918 0.280319 0.000000
v -0.125134 0.273669 0.000000
v -0.174863 0.257947 0.000000
v 0.220256 0.224621 0.000000
v 0.225929 0.207821 0.008703
v 0.225929 0.207821 -0.008703
v 0.175952 0.234451 -0.019247
v 0.125725 0.247082 -0.022569
v 0.075445 0.252657 -0.024837
v 0.043682 0.254311 -0.025910
v 0.220251 0.199270 0.000000
v 0.174863 0.211698 0.000000
v 0.125134 0.220684 -0.000000
v 0.074918 0.225058 0.000000
v 0.043677 0.226527 0.000000
v 0.043682 0.254311 0.025910
v 0.075445 0.252657 0.024837
v 0.125725 0.247082 0.022569
v 0.175952 0.234451 0.019247
v 0.043677 0.282095 -0.000000
v 0.074918 0.280319 -0.000000
v 0.125134 0.273669 0.000000
v 0.174863 0.257947 0.000000
v -0.028803 0.217160 0.000000
v 0.028803 0.217160 0.000000
v 0.000000 0.293170 0.028803
v -0.000000 0.293170 -0.028803
v -0.037048 0.288465 0.000000
v -0.037048 0.254819 -0.031669
v 0.037048 0.254819 0.031669
v 0.037048 0.288465 0.000000
vn -0.0000 -0.0000 1.0000
vn -1.0000 -0.0000 -0.0000
vn -0.0000 -1.0000 -0.0000
vn 1.0000 -0.0000 -0.0000
vn -0.0000 -0.0000 -1.0000
vn -0.0000 1.0000 -0.0000
vn -0.7498 0.6617 -0.0000
vn -0.3219 -0.0000 0.9468
vn -0.3219 -0.0000 -0.9468
vn -0.0846 -0.0000 -0.9964
vn -0.0475 -0.0000 -0.9989
vn -0.0426 -0.0000 -0.9991
vn 0.3069 -0.9517 -0.0000
vn 0.2321 -0.9727 -0.0000
vn 0.1259 -0.9920 -0.0000
vn 0.0491 -0.9988 -0.0000
vn 0.0391 -0.9992 -0.0000
vn -0.0426 -0.0000 0.9991
vn -0.0475 -0.0000 0.9989
vn -0.0846 -0.0000 0.9964
vn -0.0720 0.9974 -0.0000
vn -0.1919 0.9814 -0.0000
vn -0.4073 0.9133 -0.0000
vn 0.7498 0.6617 -0.0000
vn 0.3219 -0.0000 0.9468
vn 0.3219 -0.0000 -0.9468
vn 0.0846 -0.0000 -0.9964
vn 0.0475 -0.0000 -0.9989
vn 0.0426 -0.0000 -0.9991
vn -0.3069 -0.9517 -0.0000
vn -0.2321 -0.9727 -0.0000
vn -0.1259 -0.9920 -0.0000
vn -0.0491 -0.9988 -0.0000
vn -0.0391 -0.9992 -0.0000
vn 0.0426 -0.0000 0.9991
vn 0.0475 -0.0000 0.9989
vn 0.0846 -0.0000 0.9964
vn 0.0720 0.9974 -0.0000
vn 0.1919 0.9814 -0.0000
vn 0.4073 0.9133 -0.0000
vt 0.819297 0.915625
vt 0.807092 0.915625
vt 0.813195 0.871845
vt 0.881704 0.197750
vt 0.945428 0.197750
vt 0.913566 0.477527
vt 0.704269 0.942070
vt 0.704269 0.929865
vt 0.748048 0.935968
vt 0.600707 0.195838
vt 0.600707 0.755392
vt 0.568845 0.475615
vt 0.784504 0.074896
vt 0.784504 0.154974
vt 0.744465 0.114935
vt 0.791828 0.802645
vt 0.791828 0.814849
vt 0.748048 0.808747
vt 0.648379 0.195838
vt 0.712103 0.195838
vt 0.680241 0.475615
vt 0.678847 0.827042
vt 0.691052 0.827042
vt 0.684950 0.870821
vt 0.836119 0.195838
vt 0.836119 0.755392
vt 0.804257 0.475615
vt 0.286946 0.413590
vt 0.326760 0.453404
vt 0.261550 0.438892
vt 0.236153 0.362798
vt 0.196340 0.322984
vt 0.261550 0.337496
vt 0.483286 0.312172
vt 0.348936 0.312172
vt 0.416112 0.246962
vt 0.177036 0.453104
vt 0.042686 0.453104
vt 0.110473 0.443637
vt 0.177037 0.322684
vt 0.169808 0.387894
vt 0.286946 0.219355
vt 0.326760 0.179541
vt 0.312248 0.244751
vt 0.196340 0.309961
vt 0.196340 0.179541
vt 0.210852 0.244751
vt 0.157862 0.292567
vt 0.174877 0.312172
vt 0.108314 0.302705
vt 0.157862 0.201358
vt 0.174877 0.181753
vt 0.167648 0.246962
vt 0.481127 0.453104
vt 0.346777 0.453104
vt 0.413953 0.387894
vt 0.233907 0.829206
vt 0.200153 0.928554
vt 0.200153 0.866796
vt 0.407758 0.837541
vt 0.467946 0.837509
vt 0.417713 0.887625
vt 0.131125 0.940320
vt 0.055975 0.838297
vt 0.109058 0.888412
vt 0.119579 0.838329
vt 0.081192 0.787079
vt 0.114610 0.736341
vt 0.034737 0.736301
vt 0.075227 0.685250
vt 0.118409 0.634358
vt 0.033149 0.634315
vt 0.080280 0.583320
vt 0.128309 0.532378
vt 0.041243 0.532334
vt 0.086385 0.518929
vt 0.326291 0.928488
vt 0.292537 0.829197
vt 0.326291 0.866755
vt 0.284112 0.729908
vt 0.326291 0.777170
vt 0.279393 0.630623
vt 0.326291 0.679023
vt 0.275155 0.531340
vt 0.326291 0.579916
vt 0.377426 0.505176
vt 0.377426 0.531340
vt 0.326291 0.518258
vt 0.481886 0.531547
vt 0.399496 0.531591
vt 0.439168 0.518142
vt 0.444945 0.582533
vt 0.408864 0.633571
vt 0.489545 0.633528
vt 0.449728 0.684463
vt 0.412460 0.735554
vt 0.488042 0.735514
vt 0.444083 0.786292
vt 0.251289 0.505176
vt 0.251289 0.531338
vt 0.200153 0.518257
vt 0.247050 0.630616
vt 0.200153 0.579912
vt 0.242332 0.729903
vt 0.200153 0.679017
vt 0.200153 0.777172
vt 0.166399 0.829206
vt 0.396831 0.939532
vt 0.360044 0.829197
vt 0.368469 0.729908
vt 0.373188 0.630623
vt 0.149017 0.531338
vt 0.153255 0.630616
vt 0.157974 0.729903
vt 0.261550 0.194053
vt 0.286946 0.270147
vt 0.326760 0.309961
vt 0.261550 0.295449
vt 0.236153 0.413590
vt 0.196340 0.453404
vt 0.210852 0.388194
vt 0.286946 0.362798
vt 0.326760 0.322984
vt 0.312248 0.388194
vt 0.062261 0.433499
vt 0.051004 0.387894
vt 0.062261 0.342290
vt 0.042686 0.322684
vt 0.110474 0.332152
vt 0.060101 0.201358
vt 0.040527 0.181753
vt 0.108314 0.191220
vt 0.060101 0.292567
vt 0.040527 0.312172
vt 0.048841 0.246962
vt 0.791697 0.828066
vt 0.791697 0.915625
vt 0.747918 0.871845
vt 0.704138 0.915625
vt 0.704138 0.828066
vt 0.807092 0.828066
vt 0.819297 0.828066
vt 0.945428 0.757304
vt 0.881704 0.757304
vt 0.791828 0.929865
vt 0.791828 0.942070
vt 0.536983 0.755392
vt 0.536983 0.195838
vt 0.704426 0.154974
vt 0.704426 0.074896
vt 0.704269 0.814849
vt 0.704269 0.802645
vt 0.712103 0.755392
vt 0.648379 0.755392
vt 0.691052 0.914601
vt 0.678847 0.914601
vt 0.772395 0.755392
vt 0.772395 0.195838
vt 0.348936 0.181753
vt 0.483287 0.181753
vt 0.160022 0.433499
vt 0.160022 0.342290
vt 0.236153 0.219355
vt 0.236153 0.270147
vt 0.346777 0.322684
vt 0.481127 0.322684
vt 0.044868 0.505459
vt 0.131125 0.505503
vt 0.275155 0.505176
vt 0.396831 0.504716
vt 0.478456 0.504672
vt 0.149017 0.505176
s 0
usemtl Material
f 33/1/1 8/2/1 68/3/1
f 35/4/1 28/5/1 69/6/1
f 37/7/2 24/8/2 70/9/2
f 19/10/2 28/11/2 71/12/2
f 19/13/3 4/14/3 72/15/3
f 43/16/4 1/17/4 73/18/4
f 30/19/4 12/20/4 74/21/4
f 39/22/5 15/23/5 75/24/5
f 4/25/5 19/26/5 76/27/5
f 39/28/6 17/29/6 77/30/6
f 33/31/6 11/32/6 78/33/6
f 14/34/1 11/35/1 79/36/1
f 29/37/2 26/38/2 80/39/2
f 21/40/2 29/37/2 81/41/2
f 38/42/3 21/43/3 82/44/3
f 14/45/3 29/46/3 83/47/3
f 66/48/4 6/49/4 84/50/4
f 65/51/4 14/52/4 85/53/4
f 21/54/5 17/55/5 86/56/5
f 31/57/7 2/58/7 87/59/7
f 22/60/8 20/61/8 88/62/8
f 2/63/9 31/64/9 89/65/9
f 10/66/10 31/64/10 90/67/10
f 9/68/11 32/69/11 91/70/11
f 7/71/12 34/72/12 92/73/12
f 5/74/5 36/75/5 93/76/5
f 2/77/13 10/78/13 94/79/13
f 10/78/14 9/80/14 95/81/14
f 9/80/15 7/82/15 96/83/15
f 7/82/16 5/84/16 97/85/16
f 61/86/17 27/87/17 98/88/17
f 13/89/1 27/90/1 99/91/1
f 27/90/18 13/89/18 100/92/18
f 25/93/19 16/94/19 101/95/19
f 23/96/20 18/97/20 102/98/20
f 59/99/6 36/100/6 103/101/6
f 36/100/21 34/102/21 104/103/21
f 34/102/22 32/104/22 105/105/22
f 32/104/23 31/57/23 106/106/23
f 55/107/24 50/57/24 107/59/24
f 51/60/25 40/108/25 108/62/25
f 40/63/26 46/66/26 109/65/26
f 46/66/27 45/68/27 110/67/27
f 45/68/28 44/71/28 111/70/28
f 44/71/29 42/74/29 112/73/29
f 58/75/5 42/74/5 113/76/5
f 40/77/30 51/78/30 114/79/30
f 46/109/31 51/78/31 115/81/31
f 45/110/32 52/80/32 116/83/32
f 44/111/33 53/82/33 117/85/33
f 66/86/34 42/87/34 118/88/34
f 54/90/1 47/89/1 119/91/1
f 54/90/35 53/93/35 120/92/35
f 53/93/36 52/96/36 121/95/36
f 52/96/37 51/60/37 122/98/37
f 63/99/6 47/100/6 123/101/6
f 58/112/38 47/100/38 124/103/38
f 57/113/39 48/102/39 125/105/39
f 56/114/40 49/104/40 126/106/40
f 21/43/3 38/42/3 127/115/3
f 41/116/3 6/117/3 128/118/3
f 37/119/6 26/120/6 129/121/6
f 43/122/6 3/123/6 130/124/6
f 60/125/2 26/38/2 131/126/2
f 59/127/2 17/128/2 132/129/2
f 63/130/4 11/131/4 133/132/4
f 64/133/4 3/134/4 134/135/4
f 1/136/6 15/137/6 67/138/6
f 15/137/6 24/139/6 67/138/6
f 24/139/6 8/140/6 67/138/6
f 8/140/6 1/136/6 67/138/6
f 8/2/1 24/141/1 68/3/1
f 24/141/1 37/142/1 68/3/1
f 37/142/1 33/1/1 68/3/1
f 28/5/1 12/143/1 69/6/1
f 12/143/1 30/144/1 69/6/1
f 30/144/1 35/4/1 69/6/1
f 24/8/2 15/145/2 70/9/2
f 15/145/2 39/146/2 70/9/2
f 39/146/2 37/7/2 70/9/2
f 28/11/2 35/147/2 71/12/2
f 35/147/2 38/148/2 71/12/2
f 38/148/2 19/10/2 71/12/2
f 4/14/3 12/149/3 72/15/3
f 12/149/3 28/150/3 72/15/3
f 28/150/3 19/13/3 72/15/3
f 1/17/4 8/151/4 73/18/4
f 8/151/4 33/152/4 73/18/4
f 33/152/4 43/16/4 73/18/4
f 12/20/4 4/153/4 74/21/4
f 4/153/4 41/154/4 74/21/4
f 41/154/4 30/19/4 74/21/4
f 15/23/5 1/155/5 75/24/5
f 1/155/5 43/156/5 75/24/5
f 43/156/5 39/22/5 75/24/5
f 19/26/5 38/157/5 76/27/5
f 38/157/5 41/158/5 76/27/5
f 41/158/5 4/25/5 76/27/5
f 17/29/6 26/120/6 77/30/6
f 26/120/6 37/119/6 77/30/6
f 37/119/6 39/28/6 77/30/6
f 11/32/6 3/123/6 78/33/6
f 3/123/6 43/122/6 78/33/6
f 43/122/6 33/31/6 78/33/6
f 11/35/1 26/159/1 79/36/1
f 26/159/1 29/160/1 79/36/1
f 29/160/1 14/34/1 79/36/1
f 26/38/2 60/125/2 80/39/2
f 60/125/2 61/161/2 80/39/2
f 61/161/2 29/37/2 80/39/2
f 29/37/2 61/161/2 81/41/2
f 61/161/2 62/162/2 81/41/2
f 62/162/2 21/40/2 81/41/2
f 21/43/3 6/117/3 82/44/3
f 6/117/3 41/116/3 82/44/3
f 41/116/3 38/42/3 82/44/3
f 29/46/3 35/163/3 83/47/3
f 35/163/3 30/164/3 83/47/3
f 30/164/3 14/45/3 83/47/3
f 6/49/4 3/134/4 84/50/4
f 3/134/4 64/133/4 84/50/4
f 64/133/4 66/48/4 84/50/4
f 14/52/4 6/49/4 85/53/4
f 6/49/4 66/48/4 85/53/4
f 66/48/4 65/51/4 85/53/4
f 17/55/5 3/165/5 86/56/5
f 3/165/5 6/166/5 86/56/5
f 6/166/5 21/54/5 86/56/5
f 2/58/7 20/107/7 87/59/7
f 20/107/7 31/57/7 87/59/7
f 20/61/8 2/108/8 88/62/8
f 2/108/8 22/60/8 88/62/8
f 31/64/9 10/66/9 89/65/9
f 10/66/9 2/63/9 89/65/9
f 31/64/10 32/69/10 90/67/10
f 32/69/10 9/68/10 90/67/10
f 9/68/10 10/66/10 90/67/10
f 32/69/11 34/72/11 91/70/11
f 34/72/11 7/71/11 91/70/11
f 7/71/11 9/68/11 91/70/11
f 34/72/12 36/75/12 92/73/12
f 36/75/12 5/74/12 92/73/12
f 5/74/12 7/71/12 92/73/12
f 36/75/5 59/167/5 93/76/5
f 59/167/5 62/168/5 93/76/5
f 62/168/5 5/74/5 93/76/5
f 10/78/13 22/109/13 94/79/13
f 22/109/13 2/77/13 94/79/13
f 9/80/14 23/110/14 95/81/14
f 23/110/14 22/109/14 95/81/14
f 22/109/14 10/78/14 95/81/14
f 7/82/15 25/111/15 96/83/15
f 25/111/15 23/110/15 96/83/15
f 23/110/15 9/80/15 96/83/15
f 5/84/16 27/87/16 97/85/16
f 27/87/16 25/111/16 97/85/16
f 25/111/16 7/82/16 97/85/16
f 27/87/17 5/84/17 98/88/17
f 5/84/17 62/169/17 98/88/17
f 62/169/17 61/86/17 98/88/17
f 27/90/1 61/170/1 99/91/1
f 61/170/1 60/171/1 99/91/1
f 60/171/1 13/89/1 99/91/1
f 13/89/18 16/94/18 100/92/18
f 16/94/18 25/93/18 100/92/18
f 25/93/18 27/90/18 100/92/18
f 16/94/19 18/97/19 101/95/19
f 18/97/19 23/96/19 101/95/19
f 23/96/19 25/93/19 101/95/19
f 18/97/20 20/61/20 102/98/20
f 20/61/20 22/60/20 102/98/20
f 22/60/20 23/96/20 102/98/20
f 36/100/6 13/112/6 103/101/6
f 13/112/6 60/172/6 103/101/6
f 60/172/6 59/99/6 103/101/6
f 34/102/21 16/113/21 104/103/21
f 16/113/21 13/112/21 104/103/21
f 13/112/21 36/100/21 104/103/21
f 32/104/22 18/114/22 105/105/22
f 18/114/22 16/113/22 105/105/22
f 16/113/22 34/102/22 105/105/22
f 31/57/23 20/107/23 106/106/23
f 20/107/23 18/114/23 106/106/23
f 18/114/23 32/104/23 106/106/23
f 50/57/24 40/58/24 107/59/24
f 40/58/24 55/107/24 107/59/24
f 40/108/25 50/61/25 108/62/25
f 50/61/25 51/60/25 108/62/25
f 46/66/26 55/64/26 109/65/26
f 55/64/26 40/63/26 109/65/26
f 45/68/27 56/69/27 110/67/27
f 56/69/27 55/64/27 110/67/27
f 55/64/27 46/66/27 110/67/27
f 44/71/28 57/72/28 111/70/28
f 57/72/28 56/69/28 111/70/28
f 56/69/28 45/68/28 111/70/28
f 42/74/29 58/75/29 112/73/29
f 58/75/29 57/72/29 112/73/29
f 57/72/29 44/71/29 112/73/29
f 42/74/5 66/168/5 113/76/5
f 66/168/5 64/167/5 113/76/5
f 64/167/5 58/75/5 113/76/5
f 51/78/30 46/109/30 114/79/30
f 46/109/30 40/77/30 114/79/30
f 51/78/31 52/80/31 115/81/31
f 52/80/31 45/110/31 115/81/31
f 45/110/31 46/109/31 115/81/31
f 52/80/32 53/82/32 116/83/32
f 53/82/32 44/111/32 116/83/32
f 44/111/32 45/110/32 116/83/32
f 53/82/33 54/84/33 117/85/33
f 54/84/33 42/87/33 117/85/33
f 42/87/33 44/111/33 117/85/33
f 42/87/34 54/84/34 118/88/34
f 54/84/34 65/169/34 118/88/34
f 65/169/34 66/86/34 118/88/34
f 47/89/1 63/171/1 119/91/1
f 63/171/1 65/170/1 119/91/1
f 65/170/1 54/90/1 119/91/1
f 53/93/35 48/94/35 120/92/35
f 48/94/35 47/89/35 120/92/35
f 47/89/35 54/90/35 120/92/35
f 52/96/36 49/97/36 121/95/36
f 49/97/36 48/94/36 121/95/36
f 48/94/36 53/93/36 121/95/36
f 51/60/37 50/61/37 122/98/37
f 50/61/37 49/97/37 122/98/37
f 49/97/37 52/96/37 122/98/37
f 47/100/6 58/112/6 123/101/6
f 58/112/6 64/172/6 123/101/6
f 64/172/6 63/99/6 123/101/6
f 47/100/38 48/102/38 124/103/38
f 48/102/38 57/113/38 124/103/38
f 57/113/38 58/112/38 124/103/38
f 48/102/39 49/104/39 125/105/39
f 49/104/39 56/114/39 125/105/39
f 56/114/39 57/113/39 125/105/39
f 49/104/40 50/57/40 126/106/40
f 50/57/40 55/107/40 126/106/40
f 55/107/40 56/114/40 126/106/40
f 38/42/3 35/163/3 127/115/3
f 35/163/3 29/46/3 127/115/3
f 29/46/3 21/43/3 127/115/3
f 6/117/3 14/45/3 128/118/3
f 14/45/3 30/164/3 128/118/3
f 30/164/3 41/116/3 128/118/3
f 26/120/6 11/32/6 129/121/6
f 11/32/6 33/31/6 129/121/6
f 33/31/6 37/119/6 129/121/6
f 3/123/6 17/29/6 130/124/6
f 17/29/6 39/28/6 130/124/6
f 39/28/6 43/122/6 130/124/6
f 26/38/2 17/128/2 131/126/2
f 17/128/2 59/127/2 131/126/2
f 59/127/2 60/125/2 131/126/2
f 17/128/2 21/40/2 132/129/2
f 21/40/2 62/162/2 132/129/2
f 62/162/2 59/127/2 132/129/2
f 11/131/4 14/52/4 133/132/4
f 14/52/4 65/51/4 133/132/4
f 65/51/4 63/130/4 133/132/4
f 3/134/4 11/131/4 134/135/4
f 11/131/4 63/130/4 134/135/4
f 63/130/4 64/133/4 134/135/4
