# Blender 5.1.1
# www.blender.org
mtllib smallStage.mtl
o 圓柱體
v -4.166165 0.070903 0.000000
v -3.853757 0.380773 0.000000
v -4.086113 0.070903 -0.812778
v -3.779708 0.380773 -0.751830
v -3.849035 0.070903 -1.594322
v -3.560407 0.380773 -1.474769
v -3.464040 0.070903 -2.314597
v -3.204282 0.380773 -2.141032
v -2.945924 0.070903 -2.945923
v -2.725018 0.380773 -2.725017
v -2.314597 0.070903 -3.464039
v -2.141033 0.380773 -3.204281
v -1.594323 0.070903 -3.849034
v -1.474769 0.380773 -3.560407
v -0.812779 0.070903 -4.086113
v -0.751831 0.380773 -3.779708
v -0.000000 0.070903 -5.062393
v -0.000000 0.341164 -4.720659
v 0.812778 0.070903 -4.086113
v 0.751830 0.380773 -3.779708
v 1.594322 0.070903 -3.849035
v 1.474769 0.380773 -3.560407
v 2.314597 0.070903 -3.464040
v 2.141032 0.380773 -3.204282
v 2.945923 0.070903 -2.945924
v 2.725017 0.380773 -2.725018
v 3.464039 0.070903 -2.314597
v 3.204281 0.380773 -2.141033
v 3.849034 0.070903 -1.594323
v 3.560407 0.380773 -1.474769
v 4.086113 0.070903 -0.812779
v 3.779708 0.380773 -0.751831
v 4.166165 0.070903 -0.000000
v 3.853757 0.380773 -0.000000
v 4.086113 0.070903 0.812778
v 3.779708 0.380773 0.751830
v 3.849035 0.070903 1.594322
v 3.560407 0.380773 1.474769
v 3.464040 0.070903 2.314597
v 3.204282 0.380773 2.141032
v 2.945924 0.070903 2.945923
v 2.725018 0.380773 2.725017
v 2.314597 0.070903 3.464039
v 2.141033 0.380773 3.204281
v 1.594323 0.070903 3.849034
v 1.474769 0.380773 3.560407
v 0.812779 0.070903 4.086113
v 0.751831 0.380773 3.779708
v 0.000000 0.070903 4.166165
v 0.000000 0.380773 3.853757
v -0.812778 0.070903 4.086113
v -0.751830 0.380773 3.779708
v -1.594322 0.070903 3.849035
v -1.474769 0.380773 3.560407
v -2.314597 0.070903 3.464040
v -2.141032 0.380773 3.204282
v -2.945923 0.070903 2.945924
v -2.725017 0.380773 2.725018
v -3.464039 0.070903 2.314597
v -3.204281 0.380773 2.141033
v -3.849034 0.070903 1.594323
v -3.560407 0.380773 1.474769
v -4.086113 0.070903 0.812779
v -3.779708 0.380773 0.751831
v -3.629475 0.496161 0.000000
v -3.559735 0.496161 -0.708075
v -3.353197 0.496161 -1.388940
v -3.017798 0.496161 -2.016428
v -2.566426 0.496161 -2.566426
v -2.016428 0.496161 -3.017797
v -1.388940 0.496161 -3.353197
v -0.708076 0.496161 -3.636214
v -0.000000 0.496237 -4.302713
v 0.708075 0.496161 -3.636214
v 1.388940 0.496161 -3.353197
v 2.016428 0.496161 -3.017798
v 2.566426 0.496161 -2.566426
v 3.017797 0.496161 -2.016428
v 3.353197 0.496161 -1.388940
v 3.559735 0.496161 -0.708076
v 3.629475 0.496161 -0.000000
v 3.559735 0.496161 0.708075
v 3.353197 0.496161 1.388940
v 3.017798 0.496161 2.016428
v 2.566426 0.496161 2.566426
v 2.016428 0.496161 3.017797
v 1.388940 0.496161 3.353197
v 0.708076 0.496161 3.559735
v 0.000000 0.496161 3.629475
v -0.708075 0.496161 3.559735
v -1.388940 0.496161 3.353197
v -2.016428 0.496161 3.017798
v -2.566426 0.496161 2.566426
v -3.017797 0.496161 2.016428
v -3.353197 0.496161 1.388940
v -3.559735 0.496161 0.708076
v -3.629475 0.595168 0.000000
v -3.559735 0.595168 -0.708075
v -3.353197 0.595168 -1.388940
v -3.017798 0.595168 -2.016428
v -2.566426 0.595168 -2.566426
v -2.016428 0.595168 -3.017797
v -1.388940 0.595168 -3.353197
v -0.708076 0.595168 -3.559735
v -0.000000 0.619710 -3.823986
v 0.708075 0.595168 -3.559735
v 1.388940 0.595168 -3.353197
v 2.016428 0.595168 -3.017798
v 2.566426 0.595168 -2.566426
v 3.017797 0.595168 -2.016428
v 3.353197 0.595168 -1.388940
v 3.559735 0.595168 -0.708076
v 3.629475 0.595168 -0.000000
v 3.559735 0.595168 0.708075
v 3.353197 0.595168 1.388940
v 3.017798 0.595168 2.016428
v 2.566426 0.595168 2.566426
v 2.016428 0.595168 3.017797
v 1.388940 0.595168 3.353197
v 0.708076 0.595168 3.559735
v 0.000000 0.595168 3.629475
v -0.708075 0.595168 3.559735
v -1.388940 0.595168 3.353197
v -2.016428 0.595168 3.017798
v -2.566426 0.595168 2.566426
v -3.017797 0.595168 2.016428
v -3.353197 0.595168 1.388940
v -3.559735 0.595168 0.708076
v -3.351349 0.715315 0.000000
v -3.286953 0.715315 -0.653815
v -3.096242 0.715315 -1.282506
v -2.786545 0.715315 -1.861909
v -2.369761 0.715315 -2.369761
v -1.861910 0.715315 -2.786544
v -1.282506 0.715315 -3.096242
v -0.653816 0.715315 -3.286953
v -0.000000 0.715315 -3.351349
v 0.653816 0.715315 -3.286953
v 1.282506 0.715315 -3.096242
v 1.861910 0.715315 -2.786545
v 2.369761 0.715315 -2.369762
v 2.786544 0.715315 -1.861910
v 3.096242 0.715315 -1.282506
v 3.286953 0.715315 -0.653816
v 3.351349 0.715315 -0.000000
v 3.286953 0.715315 0.653816
v 3.096242 0.715315 1.282506
v 2.786545 0.715315 1.861909
v 2.369761 0.715315 2.369761
v 1.861910 0.715315 2.786544
v 1.282506 0.715315 3.096242
v 0.653816 0.715315 3.286953
v 0.000000 0.715315 3.351349
v -0.653815 0.715315 3.286953
v -1.282506 0.715315 3.096242
v -1.861909 0.715315 2.786545
v -2.369761 0.715315 2.369761
v -2.786544 0.715315 1.861910
v -3.096242 0.715315 1.282506
v -3.286953 0.715315 0.653816
v 0.406389 0.070903 -4.745472
v 0.375915 0.380773 -4.471786
v 0.354037 0.496199 -4.083384
v 0.354037 0.595168 -3.652583
v 0.326908 0.715315 -3.319151
v -0.406390 0.070903 -4.745472
v -0.375916 0.380773 -4.471786
v -0.354038 0.496199 -4.083384
v -0.354038 0.595168 -3.652583
v -0.326908 0.715315 -3.319151
vn -0.7025 0.7083 -0.0692
vn -0.6755 0.7083 -0.2049
vn -0.6226 0.7083 -0.3328
vn -0.5457 0.7083 -0.4478
vn -0.4478 0.7083 -0.5457
vn -0.3328 0.7083 -0.6226
vn -0.2049 0.7083 -0.6755
vn -0.4355 0.7061 -0.5584
vn 0.7468 0.4800 -0.4603
vn 0.2049 0.7083 -0.6755
vn 0.3328 0.7083 -0.6226
vn 0.4478 0.7083 -0.5457
vn 0.5457 0.7083 -0.4478
vn 0.6226 0.7083 -0.3328
vn 0.6755 0.7083 -0.2049
vn 0.7025 0.7083 -0.0692
vn 0.7025 0.7083 0.0692
vn 0.6755 0.7083 0.2049
vn 0.6226 0.7083 0.3328
vn 0.5457 0.7083 0.4478
vn 0.4478 0.7083 0.5457
vn 0.3328 0.7083 0.6226
vn 0.2049 0.7083 0.6755
vn 0.0692 0.7083 0.7025
vn -0.0692 0.7083 0.7025
vn -0.2049 0.7083 0.6755
vn -0.3328 0.7083 0.6226
vn -0.4478 0.7083 0.5457
vn -0.5457 0.7083 0.4478
vn -0.6226 0.7083 0.3328
vn 0.4570 0.8883 0.0450
vn -0.6755 0.7083 0.2049
vn -0.7025 0.7083 0.0692
vn -0.0000 -1.0000 -0.0000
vn 0.9569 -0.0000 0.2903
vn -0.1333 0.8883 0.4395
vn -0.3550 0.8883 -0.2913
vn 0.3550 0.8883 -0.2913
vn 0.2165 0.8883 0.4050
vn -0.4395 0.8883 0.1333
vn 0.1686 0.9474 -0.2720
vn 0.4395 0.8883 0.1333
vn -0.2165 0.8883 0.4050
vn -0.2913 0.8883 -0.3550
vn 0.4050 0.8883 -0.2165
vn 0.1333 0.8883 0.4395
vn -0.4570 0.8883 -0.0450
vn -0.4570 0.8883 0.0450
vn 0.1333 0.8883 -0.4395
vn 0.4050 0.8883 0.2165
vn -0.2913 0.8883 0.3550
vn -0.2165 0.8883 -0.4050
vn 0.4395 0.8883 -0.1333
vn 0.0450 0.8883 0.4570
vn -0.4395 0.8883 -0.1333
vn 0.2165 0.8883 -0.4050
vn 0.3550 0.8883 0.2913
vn -0.3550 0.8883 0.2913
vn -0.2347 0.7912 -0.5647
vn 0.4570 0.8883 -0.0450
vn -0.0450 0.8883 0.4570
vn -0.4050 0.8883 -0.2165
vn 0.2913 0.8883 -0.3550
vn 0.2913 0.8883 0.3550
vn -0.4050 0.8883 0.2165
vn -0.4318 0.8710 -0.2345
vn 0.2526 0.9173 0.3078
vn -0.6344 -0.0000 -0.7730
vn -0.9952 -0.0000 0.0980
vn 0.8819 -0.0000 0.4714
vn -0.4714 -0.0000 -0.8819
vn 0.7730 -0.0000 0.6344
vn -0.3125 0.5807 -0.7518
vn 0.6344 -0.0000 0.7730
vn -0.2032 0.5986 -0.7749
vn 0.4714 -0.0000 0.8819
vn 0.1375 0.9654 -0.2218
vn 0.2903 -0.0000 0.9569
vn 0.2903 -0.0000 -0.9569
vn 0.0980 -0.0000 0.9952
vn 0.4714 -0.0000 -0.8819
vn -0.0980 -0.0000 0.9952
vn 0.6344 -0.0000 -0.7730
vn -0.2903 -0.0000 0.9569
vn 0.7730 -0.0000 -0.6344
vn -0.4714 -0.0000 0.8819
vn 0.8819 -0.0000 -0.4714
vn -0.9952 -0.0000 -0.0980
vn -0.6344 -0.0000 0.7730
vn 0.9569 -0.0000 -0.2903
vn -0.9569 -0.0000 -0.2903
vn -0.7730 -0.0000 0.6344
vn 0.9952 -0.0000 -0.0980
vn -0.8819 -0.0000 -0.4714
vn -0.8819 -0.0000 0.4714
vn 0.9952 -0.0000 0.0980
vn -0.7730 -0.0000 -0.6344
vn -0.9569 -0.0000 0.2903
vn -0.0000 1.0000 -0.0000
vn -0.0869 0.9395 -0.3314
vn 0.1877 0.9173 0.3512
vn 0.2167 0.9239 -0.3153
vn 0.1156 0.9173 0.3810
vn 0.1156 0.9173 -0.3810
vn 0.0390 0.9173 0.3963
vn 0.1877 0.9173 -0.3512
vn -0.0390 0.9173 0.3963
vn 0.2526 0.9173 -0.3078
vn -0.1156 0.9173 0.3810
vn 0.3078 0.9173 -0.2526
vn -0.1877 0.9173 0.3512
vn 0.3512 0.9173 -0.1877
vn -0.3963 0.9173 -0.0390
vn -0.2526 0.9173 0.3078
vn 0.3810 0.9173 -0.1156
vn -0.3810 0.9173 -0.1156
vn -0.3078 0.9173 0.2526
vn 0.3963 0.9173 -0.0390
vn -0.3512 0.9173 -0.1877
vn -0.3512 0.9173 0.1877
vn 0.3963 0.9173 0.0390
vn -0.3078 0.9173 -0.2526
vn -0.3810 0.9173 0.1156
vn 0.3810 0.9173 0.1156
vn -0.2526 0.9173 -0.3078
vn -0.3963 0.9173 0.0390
vn 0.3512 0.9173 0.1877
vn -0.1877 0.9173 -0.3512
vn 0.3078 0.9173 0.2526
vn -0.1156 0.9173 -0.3810
vn 0.0390 0.9173 -0.3963
vn 0.2722 0.9378 -0.2154
vn 0.5356 0.7303 -0.4240
vn 0.4355 0.7061 -0.5584
vn -0.0195 0.9800 -0.1982
vn -0.1848 0.9516 -0.2454
vn -0.1304 0.9295 -0.3449
vn -0.7468 0.4800 -0.4603
vn -0.2722 0.9378 -0.2154
vn 0.2032 0.5986 -0.7749
vn -0.3798 0.6331 -0.6745
vn 0.7385 0.5419 -0.4011
vn 0.1304 0.9295 -0.3449
vn 0.2347 0.7912 -0.5647
vn -0.1333 0.8883 -0.4395
vn -0.5356 0.7303 -0.4240
vn -0.2903 -0.0000 -0.9569
vn 0.1848 0.9516 -0.2454
vn 0.3125 0.5807 -0.7518
vn -0.0390 0.9173 -0.3963
vn 0.0195 0.9800 -0.1982
vn 0.0869 0.9395 -0.3314
vn 0.4318 0.8710 -0.2345
vn 0.3798 0.6331 -0.6745
vn -0.2167 0.9239 -0.3153
vn -0.1375 0.9654 -0.2218
vn -0.1686 0.9474 -0.2720
vn -0.7385 0.5419 -0.4011
vt 1.000000 1.000000
vt 0.968750 0.500000
vt 1.000000 0.500000
vt 0.968750 1.000000
vt 0.937500 0.500000
vt 0.937500 1.000000
vt 0.906250 0.500000
vt 0.906250 1.000000
vt 0.875000 0.500000
vt 0.875000 1.000000
vt 0.843750 0.500000
vt 0.843750 1.000000
vt 0.812500 0.500000
vt 0.812500 1.000000
vt 0.781250 0.500000
vt 0.765625 0.500000
vt 0.750000 1.000000
vt 0.750000 0.500000
vt 0.734375 1.000000
vt 0.718750 0.500000
vt 0.734375 0.500000
vt 0.718750 1.000000
vt 0.687500 0.500000
vt 0.687500 1.000000
vt 0.656250 0.500000
vt 0.656250 1.000000
vt 0.625000 0.500000
vt 0.625000 1.000000
vt 0.593750 0.500000
vt 0.593750 1.000000
vt 0.562500 0.500000
vt 0.562500 1.000000
vt 0.531250 0.500000
vt 0.531250 1.000000
vt 0.500000 0.500000
vt 0.500000 1.000000
vt 0.468750 0.500000
vt 0.468750 1.000000
vt 0.437500 0.500000
vt 0.437500 1.000000
vt 0.406250 0.500000
vt 0.406250 1.000000
vt 0.375000 0.500000
vt 0.375000 1.000000
vt 0.343750 0.500000
vt 0.343750 1.000000
vt 0.312500 0.500000
vt 0.312500 1.000000
vt 0.281250 0.500000
vt 0.281250 1.000000
vt 0.250000 0.500000
vt 0.250000 1.000000
vt 0.218750 0.500000
vt 0.187500 1.000000
vt 0.187500 0.500000
vt 0.156250 0.500000
vt 0.156250 1.000000
vt 0.125000 0.500000
vt 0.125000 1.000000
vt 0.093750 0.500000
vt 0.093750 1.000000
vt 0.062500 0.500000
vt 0.062500 1.000000
vt 0.031250 0.500000
vt 0.031250 1.000000
vt 0.000000 0.500000
vt 0.985388 0.203178
vt 0.703178 0.014612
vt 0.514612 0.296822
vt 0.218750 1.000000
vt 0.000000 1.000000
vt 0.781250 1.000000
vt 0.765625 1.000000
vt 0.765625 1.000000
vt 0.765625 1.000000
vt 0.383337 0.449553
vt 0.341844 0.471731
vt 0.487694 0.273411
vt 0.703178 0.485388
vt 0.750000 0.490000
vt 0.796822 0.485388
vt 0.841844 0.471731
vt 0.883337 0.449553
vt 0.919706 0.419706
vt 0.949553 0.383337
vt 0.971731 0.341844
vt 0.985388 0.296822
vt 0.987694 0.273411
vt 0.987694 0.226589
vt 0.990000 0.250000
vt 0.971731 0.158156
vt 0.949553 0.116663
vt 0.919706 0.080294
vt 0.883337 0.050447
vt 0.841844 0.028269
vt 0.796822 0.014612
vt 0.750000 0.010000
vt 0.658156 0.028269
vt 0.616663 0.050447
vt 0.580294 0.080294
vt 0.550447 0.116663
vt 0.528269 0.158156
vt 0.514612 0.203178
vt 0.510000 0.250000
vt 0.528269 0.341844
vt 0.550447 0.383337
vt 0.580294 0.419706
vt 0.616663 0.449553
vt 0.658156 0.471731
vt 0.296822 0.485388
vt 0.250000 0.490000
vt 0.203178 0.485388
vt 0.158156 0.471731
vt 0.116663 0.449553
vt 0.080294 0.419706
vt 0.050447 0.383337
vt 0.028269 0.341844
vt 0.014612 0.296822
vt 0.010000 0.250000
vt 0.014612 0.203178
vt 0.487694 0.226589
vt 0.028269 0.158156
vt 0.050447 0.116663
vt 0.080294 0.080294
vt 0.116663 0.050447
vt 0.158156 0.028269
vt 0.203178 0.014612
vt 0.250000 0.010000
vt 0.296822 0.014612
vt 0.341844 0.028269
vt 0.383337 0.050447
vt 0.419706 0.080294
vt 0.449553 0.116663
vt 0.471731 0.158156
vt 0.485388 0.203178
vt 0.490000 0.250000
vt 0.485388 0.296822
vt 0.471731 0.341844
vt 0.449553 0.383337
vt 0.419706 0.419706
s 0
f 2/1/1 3/2/1 1/3/1
f 4/4/2 5/5/2 3/2/2
f 6/6/3 7/7/3 5/5/3
f 8/8/4 9/9/4 7/7/4
f 10/10/5 11/11/5 9/9/5
f 12/12/6 13/13/6 11/11/6
f 14/14/7 15/15/7 13/13/7
f 166/16/8 18/17/8 17/18/8
f 162/19/9 19/20/9 161/21/9
f 20/22/10 21/23/10 19/20/10
f 22/24/11 23/25/11 21/23/11
f 24/26/12 25/27/12 23/25/12
f 26/28/13 27/29/13 25/27/13
f 28/30/14 29/31/14 27/29/14
f 30/32/15 31/33/15 29/31/15
f 32/34/16 33/35/16 31/33/16
f 34/36/17 35/37/17 33/35/17
f 36/38/18 37/39/18 35/37/18
f 38/40/19 39/41/19 37/39/19
f 40/42/20 41/43/20 39/41/20
f 42/44/21 43/45/21 41/43/21
f 44/46/22 45/47/22 43/45/22
f 46/48/23 47/49/23 45/47/23
f 48/50/24 49/51/24 47/49/24
f 50/52/25 51/53/25 49/51/25
f 51/53/26 54/54/26 53/55/26
f 54/54/27 55/56/27 53/55/27
f 56/57/28 57/58/28 55/56/28
f 58/59/29 59/60/29 57/58/29
f 60/61/30 61/62/30 59/60/30
f 34/36/31 82/38/31 36/38/31
f 62/63/32 63/64/32 61/62/32
f 64/65/33 1/66/33 63/64/33
f 19/67/34 35/68/34 51/69/34
f 82/38/35 115/40/35 83/40/35
f 52/70/36 91/54/36 54/54/36
f 8/8/37 69/10/37 10/10/37
f 26/28/38 78/30/38 28/30/38
f 44/46/39 87/48/39 46/48/39
f 62/63/40 96/65/40 64/65/40
f 162/19/41 73/17/41 163/19/41
f 36/38/42 83/40/42 38/40/42
f 56/57/43 91/54/43 92/57/43
f 10/10/44 70/12/44 12/12/44
f 28/30/45 79/32/45 30/32/45
f 46/48/46 88/50/46 48/50/46
f 2/1/47 66/4/47 4/4/47
f 64/65/48 65/71/48 2/71/48
f 20/22/49 75/24/49 22/24/49
f 38/40/50 84/42/50 40/42/50
f 56/57/51 93/59/51 58/59/51
f 12/12/52 71/14/52 14/14/52
f 30/32/53 80/34/53 32/34/53
f 48/50/54 89/52/54 50/52/54
f 4/4/55 67/6/55 6/6/55
f 22/24/56 76/26/56 24/26/56
f 42/44/57 84/42/57 85/44/57
f 58/59/58 94/61/58 60/61/58
f 16/72/59 71/14/59 72/72/59
f 32/34/60 81/36/60 34/36/60
f 50/52/61 90/70/61 52/70/61
f 6/6/62 68/8/62 8/8/62
f 24/26/63 77/28/63 26/28/63
f 42/44/64 86/46/64 44/46/64
f 60/61/65 95/63/65 62/63/65
f 16/72/66 168/73/66 167/74/66
f 117/44/67 150/46/67 118/46/67
f 69/10/68 102/12/68 70/12/68
f 96/65/69 97/71/69 65/71/69
f 83/40/70 116/42/70 84/42/70
f 70/12/71 103/14/71 71/14/71
f 84/42/72 117/44/72 85/44/72
f 71/14/73 104/72/73 72/72/73
f 85/44/74 118/46/74 86/46/74
f 72/72/75 104/72/75 169/75/75
f 86/46/76 119/48/76 87/48/76
f 73/17/77 164/19/77 163/19/77
f 87/48/78 120/50/78 88/50/78
f 75/24/79 106/22/79 107/24/79
f 88/50/80 121/52/80 89/52/80
f 75/24/81 108/26/81 76/26/81
f 89/52/82 122/70/82 90/70/82
f 76/26/83 109/28/83 77/28/83
f 90/70/84 123/54/84 91/54/84
f 77/28/85 110/30/85 78/30/85
f 91/54/86 124/57/86 92/57/86
f 78/30/87 111/32/87 79/32/87
f 65/1/88 98/4/88 66/4/88
f 92/57/89 125/59/89 93/59/89
f 79/32/90 112/34/90 80/34/90
f 66/4/91 99/6/91 67/6/91
f 93/59/92 126/61/92 94/61/92
f 80/34/93 113/36/93 81/36/93
f 67/6/94 100/8/94 68/8/94
f 94/61/95 127/63/95 95/63/95
f 81/36/96 114/38/96 82/38/96
f 68/8/97 101/10/97 69/10/97
f 95/63/98 128/65/98 96/65/98
f 132/76/99 131/77/99 170/78/99
f 104/72/100 170/73/100 169/75/100
f 118/46/101 151/48/101 119/48/101
f 105/17/102 165/19/102 164/19/102
f 119/48/103 152/50/103 120/50/103
f 106/22/104 139/24/104 107/24/104
f 120/50/105 153/52/105 121/52/105
f 108/26/106 139/24/106 140/26/106
f 122/70/107 153/52/107 154/70/107
f 108/26/108 141/28/108 109/28/108
f 122/70/109 155/54/109 123/54/109
f 109/28/110 142/30/110 110/30/110
f 123/54/111 156/57/111 124/57/111
f 110/30/112 143/32/112 111/32/112
f 98/4/113 129/1/113 130/4/113
f 125/59/114 156/57/114 157/59/114
f 111/32/115 144/34/115 112/34/115
f 98/4/116 131/6/116 99/6/116
f 125/59/117 158/61/117 126/61/117
f 112/34/118 145/36/118 113/36/118
f 99/6/119 132/8/119 100/8/119
f 126/61/120 159/63/120 127/63/120
f 114/38/121 145/36/121 146/38/121
f 100/8/122 133/10/122 101/10/122
f 127/63/123 160/65/123 128/65/123
f 114/38/124 147/40/124 115/40/124
f 101/10/125 134/12/125 102/12/125
f 128/65/126 129/71/126 97/71/126
f 115/40/127 148/42/127 116/42/127
f 102/12/128 135/14/128 103/14/128
f 116/42/129 149/44/129 117/44/129
f 104/72/130 135/14/130 136/72/130
f 106/22/131 165/19/131 138/22/131
f 74/22/132 163/19/132 164/19/132
f 20/22/133 163/19/133 74/22/133
f 18/17/134 161/21/134 17/18/134
f 105/17/135 170/73/135 137/17/135
f 73/17/136 169/75/136 105/17/136
f 167/74/137 73/17/137 18/17/137
f 15/15/138 167/74/138 166/16/138
f 168/73/139 72/72/139 169/75/139
f 106/22/140 74/22/140 164/19/140
f 2/1/1 4/4/1 3/2/1
f 4/4/2 6/6/2 5/5/2
f 6/6/3 8/8/3 7/7/3
f 8/8/4 10/10/4 9/9/4
f 10/10/5 12/12/5 11/11/5
f 12/12/6 14/14/6 13/13/6
f 14/14/7 16/72/7 15/15/7
f 166/16/141 167/74/141 18/17/141
f 162/19/142 20/22/142 19/20/142
f 20/22/10 22/24/10 21/23/10
f 22/24/11 24/26/11 23/25/11
f 24/26/12 26/28/12 25/27/12
f 26/28/13 28/30/13 27/29/13
f 28/30/14 30/32/14 29/31/14
f 30/32/15 32/34/15 31/33/15
f 32/34/16 34/36/16 33/35/16
f 34/36/17 36/38/17 35/37/17
f 36/38/18 38/40/18 37/39/18
f 38/40/19 40/42/19 39/41/19
f 40/42/20 42/44/20 41/43/20
f 42/44/21 44/46/21 43/45/21
f 44/46/22 46/48/22 45/47/22
f 46/48/23 48/50/23 47/49/23
f 48/50/24 50/52/24 49/51/24
f 50/52/25 52/70/25 51/53/25
f 51/53/26 52/70/26 54/54/26
f 54/54/27 56/57/27 55/56/27
f 56/57/28 58/59/28 57/58/28
f 58/59/29 60/61/29 59/60/29
f 60/61/30 62/63/30 61/62/30
f 34/36/31 81/36/31 82/38/31
f 62/63/32 64/65/32 63/64/32
f 64/65/33 2/71/33 1/66/33
f 63/79/34 1/80/34 3/81/34
f 3/81/34 5/82/34 63/79/34
f 5/82/34 7/83/34 63/79/34
f 7/83/34 9/84/34 11/85/34
f 11/85/34 13/86/34 15/87/34
f 15/87/34 166/88/34 161/89/34
f 166/88/34 17/90/34 161/89/34
f 161/89/34 19/67/34 15/87/34
f 19/67/34 21/91/34 23/92/34
f 23/92/34 25/93/34 19/67/34
f 25/93/34 27/94/34 19/67/34
f 27/94/34 29/95/34 31/96/34
f 31/96/34 33/97/34 35/68/34
f 35/68/34 37/98/34 39/99/34
f 39/99/34 41/100/34 35/68/34
f 41/100/34 43/101/34 35/68/34
f 43/101/34 45/102/34 47/103/34
f 47/103/34 49/104/34 51/69/34
f 51/69/34 53/105/34 55/106/34
f 55/106/34 57/107/34 51/69/34
f 57/107/34 59/108/34 51/69/34
f 59/108/34 61/109/34 63/79/34
f 7/83/34 11/85/34 15/87/34
f 27/94/34 31/96/34 35/68/34
f 43/101/34 47/103/34 51/69/34
f 59/108/34 63/79/34 7/83/34
f 7/83/34 15/87/34 19/67/34
f 19/67/34 27/94/34 35/68/34
f 35/68/34 43/101/34 51/69/34
f 51/69/34 59/108/34 7/83/34
f 7/83/34 19/67/34 51/69/34
f 82/38/35 114/38/35 115/40/35
f 52/70/36 90/70/36 91/54/36
f 8/8/37 68/8/37 69/10/37
f 26/28/38 77/28/38 78/30/38
f 44/46/39 86/46/39 87/48/39
f 62/63/40 95/63/40 96/65/40
f 162/19/143 18/17/143 73/17/143
f 36/38/42 82/38/42 83/40/42
f 56/57/43 54/54/43 91/54/43
f 10/10/44 69/10/44 70/12/44
f 28/30/45 78/30/45 79/32/45
f 46/48/46 87/48/46 88/50/46
f 2/1/47 65/1/47 66/4/47
f 64/65/48 96/65/48 65/71/48
f 20/22/144 74/22/144 75/24/144
f 38/40/50 83/40/50 84/42/50
f 56/57/51 92/57/51 93/59/51
f 12/12/52 70/12/52 71/14/52
f 30/32/53 79/32/53 80/34/53
f 48/50/54 88/50/54 89/52/54
f 4/4/55 66/4/55 67/6/55
f 22/24/56 75/24/56 76/26/56
f 42/44/57 40/42/57 84/42/57
f 58/59/58 93/59/58 94/61/58
f 16/72/145 14/14/145 71/14/145
f 32/34/60 80/34/60 81/36/60
f 50/52/61 89/52/61 90/70/61
f 6/6/62 67/6/62 68/8/62
f 24/26/63 76/26/63 77/28/63
f 42/44/64 85/44/64 86/46/64
f 60/61/65 94/61/65 95/63/65
f 16/72/146 72/72/146 168/73/146
f 117/44/67 149/44/67 150/46/67
f 69/10/68 101/10/68 102/12/68
f 96/65/69 128/65/69 97/71/69
f 83/40/70 115/40/70 116/42/70
f 70/12/71 102/12/71 103/14/71
f 84/42/72 116/42/72 117/44/72
f 71/14/147 103/14/147 104/72/147
f 85/44/74 117/44/74 118/46/74
f 86/46/76 118/46/76 119/48/76
f 73/17/148 105/17/148 164/19/148
f 87/48/78 119/48/78 120/50/78
f 75/24/149 74/22/149 106/22/149
f 88/50/80 120/50/80 121/52/80
f 75/24/81 107/24/81 108/26/81
f 89/52/82 121/52/82 122/70/82
f 76/26/83 108/26/83 109/28/83
f 90/70/84 122/70/84 123/54/84
f 77/28/85 109/28/85 110/30/85
f 91/54/86 123/54/86 124/57/86
f 78/30/87 110/30/87 111/32/87
f 65/1/88 97/1/88 98/4/88
f 92/57/89 124/57/89 125/59/89
f 79/32/90 111/32/90 112/34/90
f 66/4/91 98/4/91 99/6/91
f 93/59/92 125/59/92 126/61/92
f 80/34/93 112/34/93 113/36/93
f 67/6/94 99/6/94 100/8/94
f 94/61/95 126/61/95 127/63/95
f 81/36/96 113/36/96 114/38/96
f 68/8/97 100/8/97 101/10/97
f 95/63/98 127/63/98 128/65/98
f 131/77/99 130/110/99 170/78/99
f 130/110/99 129/111/99 170/78/99
f 129/111/99 160/112/99 170/78/99
f 160/112/99 159/113/99 170/78/99
f 159/113/99 158/114/99 170/78/99
f 158/114/99 157/115/99 170/78/99
f 157/115/99 156/116/99 170/78/99
f 156/116/99 155/117/99 170/78/99
f 155/117/99 154/118/99 170/78/99
f 154/118/99 153/119/99 170/78/99
f 153/119/99 152/120/99 165/121/99
f 152/120/99 151/122/99 165/121/99
f 153/119/99 165/121/99 170/78/99
f 151/122/99 150/123/99 165/121/99
f 150/123/99 149/124/99 165/121/99
f 149/124/99 148/125/99 165/121/99
f 148/125/99 147/126/99 165/121/99
f 147/126/99 146/127/99 165/121/99
f 146/127/99 145/128/99 165/121/99
f 145/128/99 144/129/99 165/121/99
f 144/129/99 143/130/99 165/121/99
f 143/130/99 142/131/99 165/121/99
f 142/131/99 141/132/99 165/121/99
f 141/132/99 140/133/99 165/121/99
f 140/133/99 139/134/99 165/121/99
f 139/134/99 138/135/99 165/121/99
f 165/121/99 137/136/99 170/78/99
f 170/78/99 136/137/99 135/138/99
f 135/138/99 134/139/99 170/78/99
f 134/139/99 133/140/99 170/78/99
f 133/140/99 132/76/99 170/78/99
f 104/72/150 136/72/150 170/73/150
f 118/46/101 150/46/101 151/48/101
f 105/17/151 137/17/151 165/19/151
f 119/48/103 151/48/103 152/50/103
f 106/22/104 138/22/104 139/24/104
f 120/50/105 152/50/105 153/52/105
f 108/26/106 107/24/106 139/24/106
f 122/70/107 121/52/107 153/52/107
f 108/26/108 140/26/108 141/28/108
f 122/70/109 154/70/109 155/54/109
f 109/28/110 141/28/110 142/30/110
f 123/54/111 155/54/111 156/57/111
f 110/30/112 142/30/112 143/32/112
f 98/4/113 97/1/113 129/1/113
f 125/59/114 124/57/114 156/57/114
f 111/32/115 143/32/115 144/34/115
f 98/4/116 130/4/116 131/6/116
f 125/59/117 157/59/117 158/61/117
f 112/34/118 144/34/118 145/36/118
f 99/6/119 131/6/119 132/8/119
f 126/61/120 158/61/120 159/63/120
f 114/38/121 113/36/121 145/36/121
f 100/8/122 132/8/122 133/10/122
f 127/63/123 159/63/123 160/65/123
f 114/38/124 146/38/124 147/40/124
f 101/10/125 133/10/125 134/12/125
f 128/65/126 160/65/126 129/71/126
f 115/40/127 147/40/127 148/42/127
f 102/12/128 134/12/128 135/14/128
f 116/42/129 148/42/129 149/44/129
f 104/72/130 103/14/130 135/14/130
f 106/22/152 164/19/152 165/19/152
f 20/22/153 162/19/153 163/19/153
f 18/17/154 162/19/154 161/21/154
f 105/17/155 169/75/155 170/73/155
f 73/17/156 168/73/156 169/75/156
f 167/74/157 168/73/157 73/17/157
f 15/15/158 16/72/158 167/74/158
