# Blender 5.0.1
# www.blender.org
mtllib backPoint.mtl
o 圓柱體
v -1.000000 -1.000000 0.000000
v -1.000000 1.000000 0.000000
v -0.809017 -1.000000 -0.587785
v -0.809017 1.000000 -0.587785
v -0.309017 -1.000000 -0.951057
v -0.309017 1.000000 -0.951057
v 0.309017 -1.000000 -0.951057
v 0.309017 1.000000 -0.951057
v 0.809017 -1.000000 -0.587785
v 0.809017 1.000000 -0.587785
v 1.000000 -1.000000 -0.000000
v 1.000000 1.000000 -0.000000
v 0.809017 -1.000000 0.587785
v 0.809017 1.000000 0.587785
v 0.309017 -1.000000 0.951057
v 0.309017 1.000000 0.951057
v -0.309017 -1.000000 0.951057
v -0.309017 1.000000 0.951057
v -0.809017 -1.000000 0.587785
v -0.809017 1.000000 0.587785
vn -0.9511 -0.0000 -0.3090
vn -0.5878 -0.0000 -0.8090
vn -0.0000 -0.0000 -1.0000
vn 0.5878 -0.0000 -0.8090
vn 0.9511 -0.0000 -0.3090
vn 0.9511 -0.0000 0.3090
vn 0.5878 -0.0000 0.8090
vn -0.0000 -0.0000 1.0000
vn -0.5878 -0.0000 0.8090
vn -0.9511 -0.0000 0.3090
vt 1.000000 0.750000
vt 0.900000 0.250000
vt 1.000000 0.250000
vt 0.900000 0.750000
vt 0.800000 0.250000
vt 0.800000 0.750000
vt 0.700000 0.250000
vt 0.700000 0.750000
vt 0.600000 0.250000
vt 0.600000 0.750000
vt 0.500000 0.250000
vt 0.500000 0.750000
vt 0.400000 0.250000
vt 0.400000 0.750000
vt 0.300000 0.250000
vt 0.300000 0.750000
vt 0.200000 0.250000
vt 0.200000 0.750000
vt 0.100000 0.250000
vt 0.100000 0.750000
vt -0.000000 0.250000
vt -0.000000 0.750000
s 0
usemtl 材質
f 2/1/1 3/2/1 1/3/1
f 4/4/2 5/5/2 3/2/2
f 6/6/3 7/7/3 5/5/3
f 8/8/4 9/9/4 7/7/4
f 10/10/5 11/11/5 9/9/5
f 12/12/6 13/13/6 11/11/6
f 14/14/7 15/15/7 13/13/7
f 16/16/8 17/17/8 15/15/8
f 18/18/9 19/19/9 17/17/9
f 20/20/10 1/21/10 19/19/10
f 2/1/1 4/4/1 3/2/1
f 4/4/2 6/6/2 5/5/2
f 6/6/3 8/8/3 7/7/3
f 8/8/4 10/10/4 9/9/4
f 10/10/5 12/12/5 11/11/5
f 12/12/6 14/14/6 13/13/6
f 14/14/7 16/16/7 15/15/7
f 16/16/8 18/18/8 17/17/8
f 18/18/9 20/20/9 19/19/9
f 20/20/10 2/22/10 1/21/10
