# Blender 5.0.1
# www.blender.org
mtllib player.mtl
o main
v -0.000000 0.799669 -0.244161
v 0.320021 0.738797 -0.225575
v 0.591322 0.565451 -0.172648
v 0.800000 0.000000 -0.000000
v 0.908818 0.000000 -0.000000
v 0.226289 0.804878 -0.009150
v 0.565685 -0.541029 0.165191
v 0.418127 0.687552 0.227254
v 0.306147 -0.706888 0.215832
v 0.593714 0.246441 0.545527
v 0.000000 -0.765130 0.233615
v 0.157944 0.540738 0.684740
v 0.546310 0.465553 0.429061
v 0.226016 0.538170 0.683433
v 0.642632 0.187661 0.614621
v 0.127779 0.464677 0.737970
v 0.182851 0.429327 0.759604
v 0.000000 0.832250 0.080497
v 0.000000 0.738128 0.392899
v 0.048807 0.417668 0.770868
v 0.565686 0.165191 0.541029
v 0.069843 0.362059 0.806681
v -0.048807 0.417668 0.770868
v 0.000000 0.318256 0.780732
v -0.069843 0.362059 0.806681
v 0.522625 -0.140186 0.589246
v -0.127779 0.464677 0.737970
v -0.182850 0.429327 0.759604
v 0.400000 -0.424221 0.547756
v 0.000000 0.265392 0.869205
v -0.157944 0.540738 0.684740
v -0.226016 0.538170 0.683433
v 0.216478 -0.643672 0.422875
v -0.226289 0.804878 -0.009150
v -0.127779 0.616799 0.631510
v -0.182850 0.647012 0.607262
v -0.418127 0.687552 0.227254
v -0.048807 0.663808 0.598613
v -0.593714 0.246441 0.545527
v 0.000000 0.233615 0.765130
v -0.069843 0.714281 0.560186
v 0.048807 0.663808 0.598613
v -0.546310 0.465553 0.429061
v 0.000000 -0.076970 0.796289
v 0.069843 0.714281 0.560186
v -0.642631 0.187661 0.614621
v 0.127779 0.616799 0.631510
v 0.182851 0.647012 0.607262
v 0.000000 -0.375838 0.706220
v 0.189392 0.545480 0.693878
v -0.320021 0.738797 -0.225575
v 0.153221 0.454274 0.757706
v -0.591322 0.565451 -0.172648
v 0.000000 -0.617487 0.508635
v 0.058525 0.397906 0.797154
v -0.058525 0.397906 0.797154
v -0.772599 0.306020 -0.093436
v -0.839638 0.073065 -0.022309
v -0.153221 0.454274 0.757706
v -0.189392 0.545480 0.693878
v -0.908818 0.000000 0.000000
v -0.153221 0.636685 0.630050
v -0.565685 0.165191 0.541029
v -0.226289 0.672717 -0.442001
v -0.058525 0.693053 0.590602
v 0.058525 0.693053 0.590602
v -0.522625 -0.140186 0.589246
v 0.153221 0.636685 0.630050
v -0.418127 0.443350 -0.572550
v 0.157944 0.545480 0.693878
v -0.593714 -0.100311 -0.590144
v 0.127779 0.469418 0.747108
v -0.400000 -0.424221 0.547756
v 0.048807 0.422410 0.780006
v -0.546310 0.146487 -0.615934
v -0.048807 0.422410 0.780006
v -0.216478 -0.643672 0.422875
v -0.127779 0.469418 0.747108
v -0.642632 -0.187661 -0.614621
v -0.157944 0.545480 0.693878
v -0.000000 0.645345 -0.531647
v -0.127779 0.621541 0.640648
v -0.000000 0.392774 -0.738195
v -0.048807 0.668549 0.607750
v -0.000000 -0.172126 -0.825349
v 0.048807 0.668549 0.607750
v -0.800000 0.000000 0.000000
v 0.127779 0.621541 0.640648
v -0.739104 -0.292803 0.089401
v -0.000000 0.080406 -0.832359
v -0.000000 -0.265392 -0.869205
v -0.565685 -0.541029 0.165191
v 0.226289 0.672717 -0.442001
v -0.306147 -0.706888 0.215833
v 0.418127 0.443350 -0.572550
v 0.546310 0.146487 -0.615934
v 0.593714 -0.100311 -0.590144
v -0.565686 -0.165191 -0.541029
v 0.642631 -0.187661 -0.614621
v 0.839638 0.073065 -0.022309
v -0.522625 -0.445419 -0.410444
v 0.772599 0.306020 -0.093436
v -0.400000 -0.657836 -0.217374
v -0.216478 -0.770104 0.008790
v 0.819756 0.079316 -0.024218
v 0.579655 0.248587 0.530172
v 0.000000 0.318701 0.759807
v -0.579655 0.248587 0.530172
v -0.000000 -0.233615 -0.765130
v -0.819756 0.079316 -0.024217
v -0.579655 -0.089954 -0.578607
v -0.000000 -0.508635 -0.617487
v -0.000000 -0.160068 -0.808242
v -0.000000 -0.706220 -0.375838
v 0.579655 -0.089954 -0.578607
v -0.000000 -0.796289 -0.076970
v 0.565685 -0.165191 -0.541029
v 0.522625 -0.445419 -0.410444
v 0.400000 -0.657836 -0.217374
v 0.216478 -0.770104 0.008790
v 0.739104 -0.292803 0.089401
v 0.211872 0.506006 0.561552
v 0.226016 0.464067 0.577546
v 0.000000 0.326373 0.755688
v 0.067535 0.310532 0.733053
v 0.182851 0.356328 0.655294
v 0.070336 0.310193 0.731943
v 0.000000 0.662204 0.485771
v 0.069843 0.647875 0.465296
v 0.182851 0.570696 0.498212
v -0.069843 0.647875 0.465296
v -0.211871 0.506006 0.561552
v -0.182850 0.570696 0.498212
v -0.226016 0.464067 0.577546
v -0.182850 0.356328 0.655294
v -0.067535 0.310532 0.733053
v -0.070336 0.310193 0.731943
v 0.069843 0.310242 0.732639
v -0.069843 0.310242 0.732639
v 0.173850 0.781956 -0.163460
v 0.680007 0.272517 0.211298
v 0.406747 0.687993 -0.033905
v 0.588417 0.496301 0.103303
v 0.031867 0.316871 0.746096
v 0.343004 0.366354 0.576064
v 0.168480 0.757572 0.193977
v 0.272673 0.608668 0.402891
v 0.072011 0.811695 -0.066060
v -0.272673 0.608668 0.402891
v -0.072011 0.811695 -0.066060
v -0.343003 0.366354 0.576064
v -0.031867 0.316871 0.746096
v -0.168480 0.757572 0.193977
v -0.588417 0.496301 0.103304
v -0.173850 0.781956 -0.163460
v -0.680007 0.272517 0.211298
v -0.406747 0.687993 -0.033905
v -0.680007 0.108012 -0.327484
v -0.406747 0.589594 -0.356178
v -0.588417 0.353953 -0.362910
v -0.173850 0.739899 -0.301204
v -0.168480 0.520016 -0.584060
v -0.243730 0.253298 -0.692572
v -0.072011 0.710160 -0.398604
v -0.281668 -0.008310 -0.708460
v 0.243730 0.253298 -0.692572
v 0.072011 0.710160 -0.398604
v 0.281668 -0.008310 -0.708460
v 0.168480 0.520016 -0.584060
v 0.173850 0.739899 -0.301204
v 0.680007 0.108012 -0.327484
v 0.406747 0.589594 -0.356178
v 0.588417 0.353953 -0.362910
v 0.747213 0.125662 0.285243
v 0.708289 0.161828 0.257343
v 0.309506 0.253481 0.703872
v 0.293352 0.282992 0.654176
v -0.293352 0.282992 0.654176
v -0.309506 0.253481 0.703872
v -0.708289 0.161828 0.257343
v -0.747213 0.125662 0.285243
v -0.747213 -0.055102 -0.306787
v -0.708289 -0.009519 -0.303847
v -0.293383 -0.130680 -0.700669
v -0.309506 -0.182921 -0.725416
v 0.293383 -0.130680 -0.700669
v 0.309506 -0.182921 -0.725416
v 0.497093 -0.000000 -0.000000
v 0.747213 -0.055102 -0.306787
v 0.708289 -0.009519 -0.303847
v 0.166313 -0.707945 0.288184
v 0.562906 -0.338677 0.347197
v 0.389113 -0.564137 0.340768
v 0.657526 -0.063082 0.304029
v 0.161176 -0.497575 0.558770
v 0.272356 0.049395 0.672410
v 0.068889 -0.679495 0.381361
v 0.233163 -0.242386 0.662567
v -0.161176 -0.497575 0.558770
v -0.272356 0.049395 0.672410
v -0.068889 -0.679495 0.381361
v -0.233163 -0.242386 0.662567
v -0.166312 -0.707945 0.288184
v -0.562906 -0.338677 0.347197
v -0.389113 -0.564137 0.340768
v -0.657526 -0.063082 0.304029
v -0.166312 -0.748179 0.156411
v -0.562906 -0.474854 -0.098803
v -0.389113 -0.658270 0.032467
v -0.657526 -0.222149 -0.216940
v -0.161176 -0.724832 -0.185535
v -0.272356 -0.334626 -0.585321
v -0.068889 -0.776628 0.063234
v -0.233163 -0.571145 -0.414174
v 0.161176 -0.724832 -0.185535
v 0.272356 -0.334626 -0.585321
v 0.068889 -0.776628 0.063234
v 0.233163 -0.571145 -0.414174
v 0.166313 -0.748179 0.156411
v 0.562906 -0.474854 -0.098804
v 0.389113 -0.658270 0.032467
v 0.657526 -0.222149 -0.216940
v 0.188991 0.491266 0.723511
v 0.116803 0.409862 0.780480
v 0.000000 0.378769 0.802240
v -0.116802 0.409862 0.780480
v -0.188991 0.491266 0.723511
v -0.188991 0.591888 0.653093
v -0.116803 0.673292 0.596124
v 0.000000 0.704386 0.574364
v 0.116803 0.673292 0.596124
v 0.188991 0.591888 0.653093
v 0.000000 0.540738 0.684740
v 0.204511 0.447166 0.668830
v 0.204299 0.556066 0.592438
v 0.130480 0.366223 0.735794
v 0.000000 0.338092 0.772434
v -0.130480 0.366223 0.735794
v -0.204510 0.447166 0.668830
v -0.204299 0.556066 0.592438
v -0.128191 0.643715 0.533289
v 0.000000 0.682569 0.514872
v 0.128191 0.643715 0.533289
v 0.158080 0.503397 0.723328
v 0.097698 0.435308 0.770980
v 0.000000 0.409300 0.789181
v -0.097698 0.435308 0.770980
v -0.158080 0.503397 0.723328
v -0.158080 0.587562 0.664428
v -0.097698 0.655651 0.616777
v 0.000000 0.681659 0.598576
v 0.097698 0.655651 0.616777
v 0.158080 0.587562 0.664428
v 0.142862 0.505078 0.715924
v 0.088293 0.443543 0.758988
v 0.000000 0.420039 0.775437
v -0.088293 0.443543 0.758988
v -0.142862 0.505078 0.715924
v -0.142862 0.581139 0.662694
v -0.088293 0.642674 0.619631
v 0.000000 0.666179 0.603182
v 0.088293 0.642674 0.619631
v 0.142862 0.581139 0.662694
v -0.497093 0.000000 0.000000
vn 0.9087 0.2828 0.3072
vn 0.5414 0.8405 -0.0222
vn 0.7861 0.5975 0.1580
vn 0.3764 0.4382 0.8163
vn 0.2242 0.9331 0.2811
vn 0.3256 0.7320 0.5984
vn 0.0805 0.9918 -0.0995
vn -0.3256 0.7320 0.5984
vn -0.0805 0.9918 -0.0995
vn -0.3764 0.4382 0.8163
vn -0.2242 0.9331 0.2811
vn -0.7861 0.5975 0.1580
vn -0.1944 0.9585 -0.2085
vn -0.9087 0.2828 0.3072
vn -0.5414 0.8405 -0.0222
vn -0.9087 0.0630 -0.4128
vn -0.5414 0.7095 -0.4511
vn -0.7861 0.4074 -0.4648
vn -0.1944 0.9115 -0.3625
vn -0.2242 0.6169 -0.7544
vn -0.3256 0.2729 -0.9053
vn -0.0805 0.8782 -0.4714
vn -0.3764 -0.0925 -0.9218
vn 0.3256 0.2729 -0.9053
vn 0.0805 0.8782 -0.4714
vn 0.3764 -0.0925 -0.9218
vn 0.2242 0.6169 -0.7544
vn 0.1944 0.9115 -0.3625
vn 0.9087 0.0630 -0.4128
vn 0.5414 0.7095 -0.4511
vn 0.7861 0.4074 -0.4648
vn 0.7086 0.6994 0.0933
vn 0.3097 0.9385 -0.1524
vn 0.2935 0.8206 0.4903
vn -0.1283 -0.9915 -0.0211
vn -0.1283 0.9915 0.0211
vn -0.2935 0.8206 0.4903
vn -0.3097 0.9385 -0.1524
vn -0.7086 0.6994 0.0933
vn -0.7086 0.5280 -0.4681
vn -0.3097 0.8636 -0.3978
vn -0.1283 0.8106 -0.5713
vn -0.2935 0.4068 -0.8651
vn 0.1283 0.8106 -0.5713
vn 0.2935 0.4068 -0.8651
vn -0.0000 0.9564 -0.2920
vn 0.7086 0.5280 -0.4681
vn 0.3097 0.8636 -0.3978
vn 0.1945 -0.9115 0.3625
vn 0.7862 -0.4073 0.4648
vn 0.5414 -0.7095 0.4511
vn 0.9087 -0.0630 0.4128
vn 0.2243 -0.6169 0.7544
vn 0.3764 0.0925 0.9218
vn 0.0805 -0.8782 0.4715
vn 0.3256 -0.2728 0.9053
vn -0.2243 -0.6169 0.7544
vn -0.3764 0.0925 0.9218
vn -0.0805 -0.8782 0.4715
vn -0.3256 -0.2728 0.9053
vn -0.1945 -0.9115 0.3625
vn -0.7862 -0.4073 0.4648
vn -0.5414 -0.7095 0.4511
vn -0.9087 -0.0630 0.4128
vn -0.1945 -0.9585 0.2084
vn -0.7862 -0.5975 -0.1580
vn -0.5414 -0.8405 0.0221
vn -0.9087 -0.2828 -0.3072
vn -0.2243 -0.9331 -0.2812
vn -0.3764 -0.4382 -0.8163
vn -0.0805 -0.9918 0.0995
vn -0.3256 -0.7320 -0.5985
vn 0.2243 -0.9331 -0.2812
vn 0.3764 -0.4382 -0.8163
vn 0.0805 -0.9918 0.0995
vn 0.3256 -0.7320 -0.5985
vn 0.1945 -0.9585 0.2084
vn 0.7862 -0.5975 -0.1580
vn 0.5414 -0.8405 0.0221
vn 0.9087 -0.2828 -0.3072
vn 0.3269 0.4514 0.8303
vn 0.2020 0.3106 0.9288
vn -0.0000 0.2568 0.9665
vn -0.2020 0.3106 0.9288
vn -0.3269 0.4514 0.8303
vn -0.3269 0.6255 0.7085
vn -0.2020 0.7663 0.6099
vn -0.0000 0.8200 0.5723
vn 0.2020 0.7663 0.6099
vn 0.3269 0.6255 0.7085
vn -0.0000 0.5734 0.8193
vn 0.9511 -0.2532 0.1772
vn 0.9511 0.2532 -0.1772
vn 0.5878 -0.6628 0.4639
vn -0.0000 -0.8193 0.5734
vn -0.5878 -0.6628 0.4639
vn -0.9511 -0.2532 0.1772
vn -0.9511 0.2532 -0.1772
vn -0.5878 0.6628 -0.4639
vn -0.0000 0.8193 -0.5734
vn 0.5878 0.6628 -0.4639
vn -0.9503 0.2765 -0.1435
vn -0.5844 0.7203 -0.3737
vn -0.0000 0.8876 -0.4606
vn 0.5844 0.7203 -0.3737
vn 0.9503 0.2765 -0.1435
vn 0.9503 -0.2765 0.1435
vn 0.5844 -0.7203 0.3738
vn -0.0000 -0.8876 0.4606
vn -0.5844 -0.7203 0.3738
vn -0.9503 -0.2765 0.1435
vn -0.0000 -0.9564 0.2920
vn 0.1944 0.9585 -0.2085
vn 0.3256 0.7320 0.5985
vn 0.1283 0.9915 0.0211
vn 0.1283 -0.9915 -0.0211
vn 0.5844 -0.7203 0.3737
vn -0.5844 -0.7203 0.3737
vn -0.9503 -0.2765 0.1434
vt 0.310884 0.097629
vt 0.443254 0.125628
vt 0.381573 0.082854
vt 0.313827 0.168620
vt 0.315742 0.239287
vt 0.353450 0.209122
vt 0.369945 0.143389
vt 0.559876 0.271715
vt 0.572719 0.274139
vt 0.574404 0.225790
vt 0.598832 0.143133
vt 0.464109 0.069416
vt 0.510442 0.126500
vt 0.409278 0.192992
vt 0.369060 0.256176
vt 0.420169 0.253912
vt 0.515729 0.180073
vt 0.465239 0.198608
vt 0.317153 0.318620
vt 0.360920 0.294789
vt 0.510646 0.258790
vt 0.481295 0.274840
vt 0.465239 0.198608
vt 0.360920 0.294789
vt 0.583472 0.173030
vt 0.574404 0.225790
vt 0.402781 0.306176
vt 0.333222 0.273503
vt 0.307670 0.041134
vt 0.239537 0.089500
vt 0.277056 0.211227
vt 0.256904 0.147407
vt 0.263301 0.258652
vt 0.299567 0.274291
vt 0.221999 0.198474
vt 0.212442 0.258163
vt 0.184233 0.135833
vt 0.157601 0.210192
vt 0.231195 0.309510
vt 0.272662 0.296638
vt 0.081205 0.235382
vt 0.113695 0.161894
vt 0.151831 0.279836
vt 0.157601 0.210192
vt 0.113695 0.161894
vt 0.299567 0.274291
vt 0.277056 0.211227
vt 0.208298 0.341102
vt 0.217624 0.356921
vt 0.154836 0.407373
vt 0.111171 0.471278
vt 0.106432 0.469395
vt 0.163719 0.414747
vt 0.087945 0.462842
vt 0.096872 0.548926
vt 0.111058 0.607907
vt 0.111171 0.608481
vt 0.108774 0.548934
vt 0.124344 0.639898
vt 0.219729 0.736384
vt 0.163713 0.683099
vt 0.087945 0.635010
vt 0.106432 0.628457
vt 0.154836 0.690479
vt 0.373254 0.736384
vt 0.374872 0.740931
vt 0.296368 0.738684
vt 0.208297 0.756751
vt 0.217624 0.740931
vt 0.294775 0.749112
vt 0.378502 0.756751
vt 0.434713 0.690479
vt 0.481812 0.626574
vt 0.486063 0.628457
vt 0.429017 0.683105
vt 0.481812 0.471278
vt 0.486063 0.469395
vt 0.483962 0.548926
vt 0.498854 0.635010
vt 0.492678 0.548926
vt 0.373254 0.361468
vt 0.374872 0.356921
vt 0.429017 0.414747
vt 0.498854 0.462842
vt 0.434713 0.407373
vt 0.352941 0.415628
vt 0.242513 0.415628
vt 0.263419 0.466099
vt 0.378502 0.341102
vt 0.294775 0.348740
vt 0.219729 0.361468
vt 0.296368 0.359168
vt 0.962211 0.546206
vt 0.869750 0.546206
vt 0.910234 0.562388
vt 0.792264 0.546206
vt 0.693219 0.546206
vt 0.740174 0.626775
vt 0.825821 0.592428
vt 0.681857 0.865666
vt 0.709866 0.739759
vt 0.656969 0.675273
vt 0.891336 0.597055
vt 0.779110 0.669155
vt 0.895670 0.649353
vt 0.969142 0.946175
vt 0.968713 0.793652
vt 0.832216 0.838113
vt 0.939657 0.586360
vt 0.859584 0.730222
vt 0.962211 0.621537
vt 0.966606 0.688309
vt 0.911726 0.649353
vt 0.682345 0.864690
vt 0.686429 0.729505
vt 0.829131 0.838695
vt 0.939657 0.586360
vt 0.841453 0.717474
vt 0.910234 0.562387
vt 0.834774 0.669155
vt 0.749387 0.627699
vt 0.841877 0.592428
vt 0.547427 0.546206
vt 0.653883 0.675855
vt 0.910475 0.529831
vt 0.766406 0.473783
vt 0.841415 0.504329
vt 0.661513 0.272537
vt 0.761447 0.369610
vt 0.664313 0.433012
vt 0.892094 0.494748
vt 0.832615 0.438765
vt 0.909996 0.443859
vt 0.836200 0.270789
vt 0.939898 0.506148
vt 0.878166 0.369927
vt 0.962211 0.471785
vt 0.962211 0.391150
vt 0.909996 0.443859
vt 0.962211 0.293802
vt 0.962211 0.153350
vt 0.939898 0.506148
vt 0.910475 0.529831
vt 0.766406 0.473783
vt 0.841415 0.504329
vt 0.664313 0.433012
vt 0.194224 0.949506
vt 0.148229 0.964449
vt 0.169489 0.951632
vt 0.222650 0.910387
vt 0.203889 0.926643
vt 0.222650 0.862033
vt 0.217028 0.886210
vt 0.194224 0.822913
vt 0.203889 0.845777
vt 0.148229 0.807971
vt 0.169489 0.820788
vt 0.102234 0.822913
vt 0.126969 0.820788
vt 0.073808 0.862033
vt 0.092569 0.845777
vt 0.073808 0.910387
vt 0.079429 0.886210
vt 0.102234 0.949506
vt 0.092569 0.926643
vt 0.126969 0.951632
vt 0.451103 0.845572
vt 0.469106 0.870347
vt 0.421974 0.885659
vt 0.225825 0.812200
vt 0.270467 0.812200
vt 0.249821 0.819644
vt 0.342023 0.827142
vt 0.296047 0.827142
vt 0.316749 0.819717
vt 0.229520 0.827142
vt 0.273498 0.827142
vt 0.255130 0.845271
vt 0.244155 0.866261
vt 0.275371 0.866261
vt 0.260932 0.890438
vt 0.275371 0.914615
vt 0.273498 0.953735
vt 0.255130 0.935606
vt 0.229520 0.953735
vt 0.249821 0.961233
vt 0.337658 0.968677
vt 0.293016 0.968677
vt 0.316749 0.961160
vt 0.342023 0.953735
vt 0.296047 0.953735
vt 0.318541 0.934814
vt 0.297921 0.914615
vt 0.297921 0.866261
vt 0.317025 0.890438
vt 0.318541 0.846063
vt 0.148229 0.940884
vt 0.180370 0.930443
vt 0.166012 0.940931
vt 0.200235 0.903105
vt 0.194785 0.920030
vt 0.200235 0.869314
vt 0.205775 0.886210
vt 0.180370 0.841977
vt 0.194785 0.852390
vt 0.148229 0.831535
vt 0.166012 0.831488
vt 0.116087 0.841977
vt 0.130446 0.831488
vt 0.096222 0.869314
vt 0.101672 0.852390
vt 0.096222 0.903105
vt 0.090682 0.886210
vt 0.116087 0.930443
vt 0.101672 0.920030
vt 0.130446 0.940931
vt 0.058248 0.818181
vt 0.052555 0.832246
vt 0.053002 0.825213
vt 0.049037 0.869068
vt 0.048396 0.850657
vt 0.049037 0.914582
vt 0.046637 0.891825
vt 0.052555 0.951404
vt 0.048396 0.932993
vt 0.058248 0.965469
vt 0.053002 0.958437
vt 0.031755 0.818181
vt 0.037447 0.832246
vt 0.032201 0.825213
vt 0.040966 0.869068
vt 0.036807 0.850657
vt 0.040966 0.914582
vt 0.038566 0.891825
vt 0.037447 0.951404
vt 0.036807 0.932993
vt 0.031755 0.965469
vt 0.032201 0.958437
vt 0.431024 0.493712
vt 0.449156 0.486202
vt 0.332035 0.631753
vt 0.333222 0.273503
vt 0.523838 0.164688
vt 0.556572 0.142543
vt 0.499105 0.241625
vt 0.500224 0.202045
vt 0.156027 0.085665
vt 0.034895 0.192665
vt 0.111171 0.626574
vt 0.111171 0.607730
vt 0.123819 0.639368
vt 0.124138 0.639850
vt 0.164429 0.493712
vt 0.164429 0.604140
vt 0.146298 0.611650
vt 0.146298 0.486202
vt 0.235003 0.397497
vt 0.360451 0.397497
vt 0.148229 0.951770
vt 0.186770 0.939250
vt 0.210590 0.906469
vt 0.210590 0.865950
vt 0.186770 0.833170
vt 0.148229 0.820649
vt 0.109687 0.833170
vt 0.085867 0.865950
vt 0.085867 0.906469
vt 0.109687 0.939250
vt 0.469106 0.900971
vt 0.451103 0.925746
vt 0.421974 0.935209
vt 0.392845 0.925746
vt 0.374842 0.900971
vt 0.374842 0.870347
vt 0.392845 0.845572
vt 0.421974 0.836109
vt 0.293016 0.812200
vt 0.337658 0.812200
vt 0.334872 0.817096
vt 0.243940 0.866090
vt 0.244155 0.914615
vt 0.244330 0.913817
vt 0.253873 0.890438
vt 0.244330 0.867060
vt 0.243940 0.914786
vt 0.270467 0.968677
vt 0.225825 0.968677
vt 0.334872 0.963781
vt 0.337926 0.914615
vt 0.337926 0.866261
vt 0.329294 0.890438
vt 0.047755 0.832246
vt 0.053448 0.818181
vt 0.044237 0.869068
vt 0.044237 0.914582
vt 0.047755 0.951404
vt 0.053448 0.965469
vt 0.032647 0.832246
vt 0.026954 0.818181
vt 0.036166 0.869068
vt 0.036166 0.914582
vt 0.032647 0.951404
vt 0.026954 0.965469
vt 0.449156 0.611650
vt 0.360451 0.700355
vt 0.235003 0.700355
vt 0.242513 0.682224
vt 0.352940 0.682224
vt 0.431024 0.604140
s 0
usemtl material
f 102/1/1 13/2/1 141/3/1
f 3/4/2 2/5/2 142/6/2
f 102/1/3 3/4/3 143/7/3
f 124/8/4 107/9/4 144/10/4
f 127/11/4 106/12/4 145/13/4
f 8/14/5 6/15/5 146/16/5
f 122/17/6 13/2/6 147/18/6
f 6/15/7 1/19/7 148/20/7
f 128/21/8 19/22/8 149/23/8
f 1/19/9 34/15/9 150/24/9
f 132/17/10 43/2/10 151/13/10
f 136/25/10 107/9/10 152/26/10
f 19/22/11 18/27/11 153/16/11
f 43/2/12 37/14/12 154/7/12
f 1/19/13 51/5/13 155/28/13
f 108/12/14 43/2/14 156/3/14
f 37/14/15 34/15/15 157/6/15
f 110/29/16 57/1/16 158/30/16
f 53/4/17 51/5/17 159/31/17
f 57/1/18 53/4/18 160/32/18
f 64/33/19 51/5/19 161/34/19
f 69/35/20 64/33/20 162/36/20
f 75/37/21 69/35/21 163/38/21
f 81/39/22 64/33/22 164/40/22
f 75/37/23 90/41/23 165/42/23
f 90/41/24 83/43/24 166/44/24
f 93/33/25 81/39/25 167/40/25
f 90/41/26 96/37/26 168/45/26
f 83/43/27 81/39/27 169/36/27
f 93/33/28 1/19/28 170/46/28
f 96/37/29 102/1/29 171/30/29
f 95/35/30 93/33/30 172/47/30
f 96/37/31 95/35/31 173/32/31
f 5/48/32 100/49/32 174/50/32
f 106/51/33 10/52/33 175/53/33
f 15/54/34 10/52/34 176/55/34
f 138/56/35 125/57/35 177/58/35
f 137/59/36 108/60/36 178/61/36
f 30/62/37 24/63/37 179/64/37
f 110/65/38 58/66/38 180/67/38
f 46/68/39 39/69/39 181/70/39
f 61/71/40 58/66/40 182/72/40
f 111/73/41 71/74/41 183/75/41
f 113/76/42 85/77/42 184/78/42
f 79/79/43 71/74/43 185/80/43
f 115/81/44 97/82/44 186/83/44
f 91/84/45 85/77/45 187/85/45
f 21/86/46 4/87/46 188/88/46
f 99/89/47 97/82/47 189/90/47
f 105/91/48 100/49/48 190/92/48
f 11/93/49 9/94/49 191/95/49
f 7/96/50 121/97/50 192/98/50
f 9/94/51 7/96/51 193/99/51
f 21/100/52 26/101/52 194/102/52
f 33/103/53 29/104/53 195/105/53
f 40/106/54 44/107/54 196/108/54
f 11/93/55 33/103/55 197/109/55
f 29/104/56 26/101/56 198/110/56
f 54/111/57 49/112/57 199/113/57
f 63/114/58 67/115/58 200/116/58
f 11/93/59 54/111/59 201/117/59
f 49/112/60 44/107/60 202/118/60
f 11/93/61 77/103/61 203/119/61
f 73/120/62 67/115/62 204/121/62
f 77/103/63 73/120/63 205/122/63
f 87/123/64 89/97/64 206/124/64
f 11/93/65 94/94/65 207/125/65
f 92/96/66 89/97/66 208/126/66
f 94/94/67 92/96/67 209/127/67
f 98/128/68 101/129/68 210/130/68
f 104/131/69 103/132/69 211/133/69
f 101/129/70 98/128/70 212/134/70
f 11/93/71 104/131/71 213/135/71
f 103/132/72 101/129/72 214/136/72
f 116/137/73 114/138/73 215/139/73
f 112/140/74 109/141/74 216/134/74
f 11/93/75 116/137/75 217/142/75
f 114/138/76 112/140/76 218/136/76
f 11/93/77 120/131/77 219/143/77
f 119/132/78 118/129/78 220/144/78
f 120/131/79 119/132/79 221/145/79
f 4/123/80 121/97/80 222/146/80
f 17/147/81 14/148/81 223/149/81
f 22/150/82 17/147/82 224/151/82
f 25/152/83 22/150/83 225/153/83
f 28/154/84 25/152/84 226/155/84
f 32/156/85 28/154/85 227/157/85
f 36/158/86 32/156/86 228/159/86
f 41/160/87 36/158/87 229/161/87
f 45/162/88 41/160/88 230/163/88
f 48/164/89 45/162/89 231/165/89
f 14/148/90 48/164/90 232/166/90
f 27/167/91 23/168/91 233/169/91
f 123/170/92 14/171/92 234/172/92
f 130/173/93 48/174/93 235/175/93
f 126/176/94 17/177/94 236/178/94
f 138/179/95 22/180/95 237/181/95
f 25/182/96 28/183/96 238/184/96
f 135/185/97 28/183/97 239/186/97
f 134/187/98 32/188/98 240/189/98
f 133/190/99 36/191/99 241/192/99
f 41/193/100 45/194/100 242/195/100
f 45/194/101 48/174/101 243/196/101
f 70/197/91 72/198/91 244/199/91
f 72/198/91 74/200/91 245/201/91
f 74/200/91 76/202/91 246/203/91
f 76/202/91 78/204/91 247/205/91
f 78/204/91 80/206/91 248/207/91
f 80/206/91 82/208/91 249/209/91
f 82/208/91 84/210/91 250/211/91
f 84/210/91 86/212/91 251/213/91
f 86/212/91 88/214/91 252/215/91
f 88/214/91 70/197/91 253/216/91
f 12/217/102 16/218/102 254/219/102
f 16/218/103 20/220/103 255/221/103
f 20/220/104 23/222/104 256/223/104
f 23/222/105 27/224/105 257/225/105
f 27/224/106 31/226/106 258/227/106
f 31/228/107 35/229/107 259/230/107
f 35/229/108 38/231/108 260/232/108
f 38/231/109 42/233/109 261/234/109
f 42/233/110 47/235/110 262/236/110
f 47/235/111 12/237/111 263/238/111
f 40/239/112 30/240/112 264/241/112
f 2/5/113 1/19/113 140/242/113
f 1/19/113 6/15/113 140/242/113
f 6/15/113 2/5/113 140/242/113
f 13/2/1 106/12/1 141/3/1
f 106/12/1 105/29/1 141/3/1
f 105/29/1 102/1/1 141/3/1
f 2/5/2 6/15/2 142/6/2
f 6/15/2 8/14/2 142/6/2
f 8/14/2 3/4/2 142/6/2
f 3/4/3 8/14/3 143/7/3
f 8/14/3 13/2/3 143/7/3
f 13/2/3 102/1/3 143/7/3
f 107/9/4 125/25/4 144/10/4
f 125/25/4 124/8/4 144/10/4
f 106/12/4 13/2/4 145/13/4
f 13/2/4 122/17/4 145/13/4
f 122/17/4 123/243/4 145/13/4
f 123/243/4 126/244/4 145/13/4
f 126/244/4 127/11/4 145/13/4
f 6/15/5 18/27/5 146/16/5
f 18/27/5 19/22/5 146/16/5
f 19/22/5 8/14/5 146/16/5
f 13/2/6 8/14/6 147/18/6
f 8/14/6 19/22/6 147/18/6
f 19/22/6 128/21/6 147/18/6
f 128/21/114 129/245/114 147/18/114
f 129/245/6 130/246/6 147/18/6
f 130/246/6 122/17/6 147/18/6
f 1/19/7 18/27/7 148/20/7
f 18/27/7 6/15/7 148/20/7
f 19/22/8 37/14/8 149/23/8
f 37/14/8 43/2/8 149/23/8
f 43/2/8 132/17/8 149/23/8
f 132/17/8 133/246/8 149/23/8
f 133/246/8 131/245/8 149/23/8
f 131/245/8 128/21/8 149/23/8
f 34/15/9 18/27/9 150/24/9
f 18/27/9 1/19/9 150/24/9
f 43/2/10 108/12/10 151/13/10
f 108/12/10 137/11/10 151/13/10
f 137/11/10 135/244/10 151/13/10
f 135/244/10 134/243/10 151/13/10
f 134/243/10 132/17/10 151/13/10
f 107/9/10 124/8/10 152/26/10
f 124/8/10 136/25/10 152/26/10
f 18/27/11 34/15/11 153/16/11
f 34/15/11 37/14/11 153/16/11
f 37/14/11 19/22/11 153/16/11
f 37/14/12 53/4/12 154/7/12
f 53/4/12 57/1/12 154/7/12
f 57/1/12 43/2/12 154/7/12
f 51/5/13 34/15/13 155/28/13
f 34/15/13 1/19/13 155/28/13
f 43/2/14 57/1/14 156/3/14
f 57/1/14 110/29/14 156/3/14
f 110/29/14 108/12/14 156/3/14
f 34/15/15 51/5/15 157/6/15
f 51/5/15 53/4/15 157/6/15
f 53/4/15 37/14/15 157/6/15
f 57/1/16 75/37/16 158/30/16
f 75/37/16 111/247/16 158/30/16
f 111/247/16 110/29/16 158/30/16
f 51/5/17 64/33/17 159/31/17
f 64/33/17 69/35/17 159/31/17
f 69/35/17 53/4/17 159/31/17
f 53/4/18 69/35/18 160/32/18
f 69/35/18 75/37/18 160/32/18
f 75/37/18 57/1/18 160/32/18
f 51/5/19 1/19/19 161/34/19
f 1/19/19 64/33/19 161/34/19
f 64/33/20 81/39/20 162/36/20
f 81/39/20 83/43/20 162/36/20
f 83/43/20 69/35/20 162/36/20
f 69/35/21 83/43/21 163/38/21
f 83/43/21 90/41/21 163/38/21
f 90/41/21 75/37/21 163/38/21
f 64/33/22 1/19/22 164/40/22
f 1/19/22 81/39/22 164/40/22
f 90/41/23 113/248/23 165/42/23
f 113/248/23 111/247/23 165/42/23
f 111/247/23 75/37/23 165/42/23
f 83/43/24 95/35/24 166/44/24
f 95/35/24 96/37/24 166/44/24
f 96/37/24 90/41/24 166/44/24
f 81/39/25 1/19/25 167/40/25
f 1/19/25 93/33/25 167/40/25
f 96/37/26 115/247/26 168/45/26
f 115/247/26 113/248/26 168/45/26
f 113/248/26 90/41/26 168/45/26
f 81/39/27 93/33/27 169/36/27
f 93/33/27 95/35/27 169/36/27
f 95/35/27 83/43/27 169/36/27
f 1/19/28 2/5/28 170/46/28
f 2/5/28 93/33/28 170/46/28
f 102/1/29 105/29/29 171/30/29
f 105/29/29 115/247/29 171/30/29
f 115/247/29 96/37/29 171/30/29
f 93/33/30 2/5/30 172/47/30
f 2/5/30 3/4/30 172/47/30
f 3/4/30 95/35/30 172/47/30
f 95/35/31 3/4/31 173/32/31
f 3/4/31 102/1/31 173/32/31
f 102/1/31 96/37/31 173/32/31
f 100/49/32 10/52/32 174/50/32
f 10/52/32 15/54/32 174/50/32
f 15/54/32 5/48/32 174/50/32
f 10/52/33 100/49/33 175/53/33
f 100/49/33 105/91/33 175/53/33
f 105/91/33 106/51/33 175/53/33
f 10/52/34 24/63/34 176/55/34
f 24/63/34 30/62/34 176/55/34
f 30/62/34 15/54/34 176/55/34
f 125/57/115 107/249/115 177/58/115
f 107/249/115 24/63/115 177/58/115
f 24/63/115 10/52/115 177/58/115
f 10/52/115 106/51/115 177/58/115
f 106/51/115 127/250/115 177/58/115
f 127/250/115 138/56/115 177/58/115
f 108/60/36 39/69/36 178/61/36
f 39/69/36 24/63/36 178/61/36
f 24/63/36 107/249/36 178/61/36
f 107/249/36 136/251/36 178/61/36
f 136/251/116 139/252/116 178/61/116
f 139/252/36 137/59/36 178/61/36
f 24/63/37 39/69/37 179/64/37
f 39/69/37 46/68/37 179/64/37
f 46/68/37 30/62/37 179/64/37
f 58/66/38 39/69/38 180/67/38
f 39/69/38 108/60/38 180/67/38
f 108/60/38 110/65/38 180/67/38
f 39/69/39 58/66/39 181/70/39
f 58/66/39 61/71/39 181/70/39
f 61/71/39 46/68/39 181/70/39
f 58/66/40 71/74/40 182/72/40
f 71/74/40 79/79/40 182/72/40
f 79/79/40 61/71/40 182/72/40
f 71/74/41 58/66/41 183/75/41
f 58/66/41 110/65/41 183/75/41
f 110/65/41 111/73/41 183/75/41
f 85/77/42 71/74/42 184/78/42
f 71/74/42 111/73/42 184/78/42
f 111/73/42 113/76/42 184/78/42
f 71/74/43 85/77/43 185/80/43
f 85/77/43 91/84/43 185/80/43
f 91/84/43 79/79/43 185/80/43
f 97/82/44 85/77/44 186/83/44
f 85/77/44 113/76/44 186/83/44
f 113/76/44 115/81/44 186/83/44
f 85/77/45 97/82/45 187/85/45
f 97/82/45 99/89/45 187/85/45
f 99/89/45 91/84/45 187/85/45
f 4/87/46 117/253/46 188/88/46
f 117/253/46 109/254/46 188/88/46
f 109/254/112 91/255/112 188/88/112
f 91/255/112 99/256/112 188/88/112
f 99/256/112 5/257/112 188/88/112
f 5/257/112 15/258/112 188/88/112
f 15/258/112 30/240/112 188/88/112
f 30/240/112 40/239/112 188/88/112
f 40/239/46 21/86/46 188/88/46
f 97/82/47 100/49/47 189/90/47
f 100/49/47 5/48/47 189/90/47
f 5/48/47 99/89/47 189/90/47
f 100/49/48 97/82/48 190/92/48
f 97/82/48 115/81/48 190/92/48
f 115/81/48 105/91/48 190/92/48
f 9/94/49 33/103/49 191/95/49
f 33/103/49 11/93/49 191/95/49
f 121/97/50 26/101/50 192/98/50
f 26/101/50 29/104/50 192/98/50
f 29/104/50 7/96/50 192/98/50
f 7/96/51 29/104/51 193/99/51
f 29/104/51 33/103/51 193/99/51
f 33/103/51 9/94/51 193/99/51
f 26/101/52 121/97/52 194/102/52
f 121/97/52 4/123/52 194/102/52
f 4/123/52 21/100/52 194/102/52
f 29/104/53 49/112/53 195/105/53
f 49/112/53 54/111/53 195/105/53
f 54/111/53 33/103/53 195/105/53
f 44/107/54 26/101/54 196/108/54
f 26/101/54 21/100/54 196/108/54
f 21/100/54 40/106/54 196/108/54
f 33/103/55 54/111/55 197/109/55
f 54/111/55 11/93/55 197/109/55
f 26/101/56 44/107/56 198/110/56
f 44/107/56 49/112/56 198/110/56
f 49/112/56 29/104/56 198/110/56
f 49/112/57 73/120/57 199/113/57
f 73/120/57 77/103/57 199/113/57
f 77/103/57 54/111/57 199/113/57
f 67/115/58 44/107/58 200/116/58
f 44/107/58 40/106/58 200/116/58
f 40/106/58 63/114/58 200/116/58
f 54/111/59 77/103/59 201/117/59
f 77/103/59 11/93/59 201/117/59
f 44/107/60 67/115/60 202/118/60
f 67/115/60 73/120/60 202/118/60
f 73/120/60 49/112/60 202/118/60
f 77/103/61 94/94/61 203/119/61
f 94/94/61 11/93/61 203/119/61
f 67/115/62 89/97/62 204/121/62
f 89/97/62 92/96/62 204/121/62
f 92/96/62 73/120/62 204/121/62
f 73/120/63 92/96/63 205/122/63
f 92/96/63 94/94/63 205/122/63
f 94/94/63 77/103/63 205/122/63
f 89/97/64 67/115/64 206/124/64
f 67/115/64 63/114/64 206/124/64
f 63/114/64 87/123/64 206/124/64
f 94/94/65 104/131/65 207/125/65
f 104/131/65 11/93/65 207/125/65
f 89/97/66 101/129/66 208/126/66
f 101/129/66 103/132/66 208/126/66
f 103/132/66 92/96/66 208/126/66
f 92/96/67 103/132/67 209/127/67
f 103/132/67 104/131/67 209/127/67
f 104/131/67 94/94/67 209/127/67
f 101/129/68 89/97/68 210/130/68
f 89/97/68 87/123/68 210/130/68
f 87/123/68 98/128/68 210/130/68
f 103/132/69 114/138/69 211/133/69
f 114/138/69 116/137/69 211/133/69
f 116/137/69 104/131/69 211/133/69
f 98/128/70 109/141/70 212/134/70
f 109/141/70 112/140/70 212/134/70
f 112/140/70 101/129/70 212/134/70
f 104/131/71 116/137/71 213/135/71
f 116/137/71 11/93/71 213/135/71
f 101/129/72 112/140/72 214/136/72
f 112/140/72 114/138/72 214/136/72
f 114/138/72 103/132/72 214/136/72
f 114/138/73 119/132/73 215/139/73
f 119/132/73 120/131/73 215/139/73
f 120/131/73 116/137/73 215/139/73
f 109/141/74 117/128/74 216/134/74
f 117/128/74 118/129/74 216/134/74
f 118/129/74 112/140/74 216/134/74
f 116/137/75 120/131/75 217/142/75
f 120/131/75 11/93/75 217/142/75
f 112/140/76 118/129/76 218/136/76
f 118/129/76 119/132/76 218/136/76
f 119/132/76 114/138/76 218/136/76
f 120/131/77 9/94/77 219/143/77
f 9/94/77 11/93/77 219/143/77
f 118/129/78 121/97/78 220/144/78
f 121/97/78 7/96/78 220/144/78
f 7/96/78 119/132/78 220/144/78
f 119/132/79 7/96/79 221/145/79
f 7/96/79 9/94/79 221/145/79
f 9/94/79 120/131/79 221/145/79
f 121/97/80 118/129/80 222/146/80
f 118/129/80 117/128/80 222/146/80
f 117/128/80 4/123/80 222/146/80
f 14/148/81 50/259/81 223/149/81
f 50/259/81 52/260/81 223/149/81
f 52/260/81 17/147/81 223/149/81
f 17/147/82 52/260/82 224/151/82
f 52/260/82 55/261/82 224/151/82
f 55/261/82 22/150/82 224/151/82
f 22/150/83 55/261/83 225/153/83
f 55/261/83 56/262/83 225/153/83
f 56/262/83 25/152/83 225/153/83
f 25/152/84 56/262/84 226/155/84
f 56/262/84 59/263/84 226/155/84
f 59/263/84 28/154/84 226/155/84
f 28/154/85 59/263/85 227/157/85
f 59/263/85 60/264/85 227/157/85
f 60/264/85 32/156/85 227/157/85
f 32/156/86 60/264/86 228/159/86
f 60/264/86 62/265/86 228/159/86
f 62/265/86 36/158/86 228/159/86
f 36/158/87 62/265/87 229/161/87
f 62/265/87 65/266/87 229/161/87
f 65/266/87 41/160/87 229/161/87
f 41/160/88 65/266/88 230/163/88
f 65/266/88 66/267/88 230/163/88
f 66/267/88 45/162/88 230/163/88
f 45/162/89 66/267/89 231/165/89
f 66/267/89 68/268/89 231/165/89
f 68/268/89 48/164/89 231/165/89
f 48/164/90 68/268/90 232/166/90
f 68/268/90 50/259/90 232/166/90
f 50/259/90 14/148/90 232/166/90
f 23/168/91 20/269/91 233/169/91
f 20/269/91 16/270/91 233/169/91
f 16/270/91 12/271/91 233/169/91
f 12/271/91 47/272/91 233/169/91
f 47/272/91 42/273/91 233/169/91
f 42/273/91 38/274/91 233/169/91
f 38/274/91 35/275/91 233/169/91
f 35/275/91 31/276/91 233/169/91
f 31/276/91 27/167/91 233/169/91
f 14/171/92 17/177/92 234/172/92
f 17/177/92 126/176/92 234/172/92
f 126/176/92 123/170/92 234/172/92
f 48/174/93 14/277/93 235/175/93
f 14/277/93 123/278/93 235/175/93
f 123/278/93 122/279/93 235/175/93
f 122/279/93 130/173/93 235/175/93
f 17/177/94 22/180/94 236/178/94
f 22/180/94 138/179/94 236/178/94
f 138/179/94 127/280/94 236/178/94
f 127/280/94 126/176/94 236/178/94
f 22/180/95 25/182/95 237/181/95
f 25/182/95 139/281/95 237/181/95
f 139/281/95 136/282/95 237/181/95
f 136/282/95 124/283/95 237/181/95
f 124/283/95 125/284/95 237/181/95
f 125/284/95 138/179/95 237/181/95
f 28/183/96 135/185/96 238/184/96
f 135/185/96 137/285/96 238/184/96
f 137/285/96 139/281/96 238/184/96
f 139/281/96 25/182/96 238/184/96
f 28/183/97 32/286/97 239/186/97
f 32/286/97 134/287/97 239/186/97
f 134/287/97 135/185/97 239/186/97
f 32/188/98 36/191/98 240/189/98
f 36/191/98 133/190/98 240/189/98
f 133/190/98 132/288/98 240/189/98
f 132/288/98 134/187/98 240/189/98
f 36/191/99 41/193/99 241/192/99
f 41/193/99 131/289/99 241/192/99
f 131/289/99 133/190/99 241/192/99
f 45/194/100 129/290/100 242/195/100
f 129/290/100 128/291/100 242/195/100
f 128/291/100 131/289/100 242/195/100
f 131/289/100 41/193/100 242/195/100
f 48/174/101 130/173/101 243/196/101
f 130/173/101 129/290/101 243/196/101
f 129/290/101 45/194/101 243/196/101
f 72/198/91 52/260/91 244/199/91
f 52/260/91 50/259/91 244/199/91
f 50/259/91 70/197/91 244/199/91
f 74/200/91 55/261/91 245/201/91
f 55/261/91 52/260/91 245/201/91
f 52/260/91 72/198/91 245/201/91
f 76/202/91 56/262/91 246/203/91
f 56/262/91 55/261/91 246/203/91
f 55/261/91 74/200/91 246/203/91
f 78/204/91 59/263/91 247/205/91
f 59/263/91 56/262/91 247/205/91
f 56/262/91 76/202/91 247/205/91
f 80/206/91 60/264/91 248/207/91
f 60/264/91 59/263/91 248/207/91
f 59/263/91 78/204/91 248/207/91
f 82/208/91 62/265/91 249/209/91
f 62/265/91 60/264/91 249/209/91
f 60/264/91 80/206/91 249/209/91
f 84/210/91 65/266/91 250/211/91
f 65/266/91 62/265/91 250/211/91
f 62/265/91 82/208/91 250/211/91
f 86/212/91 66/267/91 251/213/91
f 66/267/91 65/266/91 251/213/91
f 65/266/91 84/210/91 251/213/91
f 88/214/91 68/268/91 252/215/91
f 68/268/91 66/267/91 252/215/91
f 66/267/91 86/212/91 252/215/91
f 70/197/91 50/259/91 253/216/91
f 50/259/91 68/268/91 253/216/91
f 68/268/91 88/214/91 253/216/91
f 16/218/102 72/292/102 254/219/102
f 72/292/102 70/293/102 254/219/102
f 70/293/102 12/217/102 254/219/102
f 20/220/103 74/294/103 255/221/103
f 74/294/103 72/292/103 255/221/103
f 72/292/103 16/218/103 255/221/103
f 23/222/104 76/295/104 256/223/104
f 76/295/104 74/294/104 256/223/104
f 74/294/104 20/220/104 256/223/104
f 27/224/105 78/296/105 257/225/105
f 78/296/105 76/295/105 257/225/105
f 76/295/105 23/222/105 257/225/105
f 31/226/106 80/297/106 258/227/106
f 80/297/106 78/296/106 258/227/106
f 78/296/106 27/224/106 258/227/106
f 35/229/107 82/298/107 259/230/107
f 82/298/107 80/299/107 259/230/107
f 80/299/107 31/228/107 259/230/107
f 38/231/117 84/300/117 260/232/117
f 84/300/117 82/298/117 260/232/117
f 82/298/117 35/229/117 260/232/117
f 42/233/109 86/301/109 261/234/109
f 86/301/109 84/300/109 261/234/109
f 84/300/109 38/231/109 261/234/109
f 47/235/118 88/302/118 262/236/118
f 88/302/118 86/301/118 262/236/118
f 86/301/118 42/233/118 262/236/118
f 12/237/111 70/303/111 263/238/111
f 70/303/119 88/302/119 263/238/119
f 88/302/111 47/235/111 263/238/111
f 30/240/112 46/304/112 264/241/112
f 46/304/112 61/305/112 264/241/112
f 61/305/112 79/306/112 264/241/112
f 79/306/112 91/255/112 264/241/112
f 91/255/112 109/254/112 264/241/112
f 109/254/46 98/307/46 264/241/46
f 98/307/46 87/308/46 264/241/46
f 87/308/46 63/309/46 264/241/46
f 63/309/46 40/239/46 264/241/46
