# Blender 5.0.1
# www.blender.org
mtllib enemy.mtl
o 球體.001
v -0.976231 0.000553 -0.000003
v -0.229909 0.597031 -0.000000
v -0.524576 0.484628 -0.000000
v 0.104696 0.681030 -0.000000
v -0.408893 0.412205 -0.100719
v 0.236670 0.579223 -0.156863
v -0.397913 0.350725 -0.191578
v -0.434374 0.254968 -0.263685
v -0.114227 0.507791 -0.137500
v 0.249196 0.492799 -0.298372
v -0.457805 0.133956 -0.310022
v -0.465851 0.000553 -0.325932
v -0.103247 0.432036 -0.261540
v -0.139708 0.314043 -0.359979
v -0.250109 0.412205 -0.086637
v 0.207600 0.358191 -0.410673
v -0.204165 0.350725 -0.164794
v 0.180870 0.188081 -0.482841
v -0.167703 0.254968 -0.226819
v -0.144294 0.134307 -0.266642
v -0.163139 0.164932 -0.423238
v 0.171691 0.000553 -0.507620
v -0.136227 0.000553 -0.280364
v -0.171184 0.000553 -0.444959
v -0.167703 0.412205 -0.053545
v 0.417814 0.579223 -0.134932
v 0.044557 0.507791 -0.118276
v 0.470229 0.492799 -0.256657
v 0.090501 0.432036 -0.224975
v 0.511825 0.358191 -0.353258
v 0.126963 0.314043 -0.309651
v 0.538532 0.188574 -0.415279
v 0.150373 0.165364 -0.364017
v 0.547734 0.000553 -0.436651
v -0.167703 0.412205 0.053545
v 0.158439 0.000553 -0.382750
v 0.126963 0.507791 -0.073099
v 0.511825 0.579223 -0.083393
v 0.649048 0.492799 -0.158623
v 0.247247 0.432036 -0.139042
v -0.250109 0.412205 0.086637
v 0.757948 0.358191 -0.218325
v -0.204165 0.350725 0.164794
v 0.827867 0.188574 -0.256657
v -0.167703 0.254968 0.226819
v -0.144293 0.134307 0.266642
v 0.851959 0.000553 -0.269865
v -0.136227 0.000553 0.280364
v 0.158439 0.507791 -0.000000
v -0.408893 0.412205 0.100719
v 0.547734 0.579223 -0.000000
v -0.397913 0.350725 0.191578
v 0.717351 0.492799 -0.000000
v -0.434374 0.254968 0.263685
v 0.851959 0.358191 -0.000000
v -0.457784 0.134307 0.309980
v 0.938383 0.188574 -0.000000
v -0.465851 0.000553 0.325932
v 0.968163 0.000553 -0.000000
v -0.304996 0.000553 -0.000004
v 0.126963 0.507791 0.073099
v 0.511825 0.579223 0.083393
v 0.649048 0.492799 0.158623
v 0.247247 0.432036 0.139042
v 0.757949 0.358191 0.218325
v 0.827867 0.188574 0.256657
v 0.851959 0.000553 0.269865
v 0.417815 0.579223 0.134932
v 0.044557 0.507791 0.118276
v 0.470229 0.492799 0.256657
v 0.090501 0.432036 0.224975
v 0.511825 0.358191 0.353258
v 0.126963 0.314043 0.309651
v 0.538532 0.188574 0.415280
v 0.150373 0.165364 0.364017
v 0.547734 0.000553 0.436651
v 0.158439 0.000553 0.382750
v 0.236670 0.579223 0.156863
v -0.114226 0.507791 0.137500
v 0.249197 0.492799 0.298372
v -0.103247 0.432036 0.261540
v 0.207600 0.358191 0.410674
v -0.139708 0.314043 0.359979
v -0.163118 0.165364 0.423181
v 0.180894 0.188574 0.482776
v -0.171184 0.000553 0.444959
v 0.171691 0.000553 0.507620
v 0.359713 0.000553 0.000000
v -0.006373 0.000553 0.000000
v 0.284313 0.336389 0.203565
v 0.275100 0.314043 0.228438
v 0.258992 0.237362 0.271927
v 0.270604 0.419633 -0.113602
v 0.261447 0.432036 -0.106064
v 0.172258 0.500750 -0.000000
v 0.172258 0.500750 0.000000
v 0.258991 0.237362 -0.271927
v 0.284313 0.336389 -0.203565
v 0.275100 0.314043 -0.228438
v 0.270604 0.419633 0.113602
v 0.261447 0.432036 0.106064
v 0.273189 0.399969 -0.153265
v 0.273189 0.399969 0.153265
v 0.243867 0.165364 0.312760
v 0.241239 0.125123 0.319855
v 0.233105 0.000553 0.341816
v 0.243867 0.165364 -0.312760
v 0.241218 0.124802 -0.319911
v 0.233105 0.000553 -0.341816
v -0.068737 0.278329 0.168372
v -0.076876 0.254968 0.190345
v -0.087979 0.192420 0.220320
v -0.162479 0.417101 -0.000000
v -0.162479 0.417101 0.000000
v -0.083291 0.362303 -0.098061
v -0.098924 0.377050 -0.081165
v -0.148330 0.412205 -0.020588
v -0.068737 0.278329 -0.168372
v -0.076876 0.254968 -0.190345
v -0.087979 0.192420 -0.220320
v -0.098924 0.377051 0.081165
v -0.083291 0.362303 0.098061
v -0.148330 0.412205 0.020588
v -0.081562 0.350725 -0.115559
v -0.081562 0.350725 0.115559
v -0.098294 0.134307 0.248170
v -0.100229 0.099239 0.253394
v -0.105674 0.000553 0.268095
v -0.098294 0.134307 -0.248170
v -0.100243 0.098982 -0.253432
v -0.105674 0.000553 -0.268095
v -0.392259 0.174608 0.180397
v -0.387389 0.214733 0.170765
v -0.375289 0.268945 0.146836
v -0.440389 0.302319 0.000000
v -0.440388 0.302319 -0.000000
v -0.404839 0.342267 -0.066130
v -0.389269 0.337307 -0.082393
v -0.417490 0.320369 -0.038252
v -0.387389 0.214733 -0.170766
v -0.392259 0.174608 -0.180397
v -0.375289 0.268945 -0.146837
v -0.417491 0.320369 0.038251
v -0.404839 0.342267 0.066130
v -0.389269 0.337307 0.082393
v -0.381637 0.298027 -0.127704
v -0.381637 0.298027 0.127704
v -0.400508 0.085431 0.196710
v -0.399299 0.116609 0.194319
v -0.403228 0.000553 0.202089
v -0.399299 0.116609 -0.194319
v -0.400517 0.085205 -0.196727
v -0.403228 0.000553 -0.202089
vn 0.1841 0.1199 -0.9756
vn 0.1030 0.8315 -0.5460
vn 0.1475 0.6063 -0.7814
vn 0.1726 0.3616 -0.9162
vn 0.0613 0.8600 -0.5066
vn 0.4469 0.3684 -0.8152
vn 0.1702 0.9352 -0.3105
vn 0.4771 0.1223 -0.8703
vn 0.2634 0.8365 -0.4805
vn 0.3795 0.6140 -0.6921
vn 0.8319 0.4239 -0.3582
vn 0.2229 0.9701 -0.0960
vn 0.9089 0.1440 -0.3914
vn 0.4456 0.8745 -0.1919
vn 0.6764 0.6764 -0.2913
vn 0.6764 0.6764 0.2913
vn 0.8319 0.4239 0.3582
vn 0.2229 0.9701 0.0960
vn 0.9089 0.1440 0.3914
vn 0.4456 0.8745 0.1919
vn 0.3795 0.6140 0.6921
vn 0.4469 0.3684 0.8152
vn 0.1702 0.9352 0.3105
vn 0.4771 0.1223 0.8703
vn 0.2634 0.8365 0.4805
vn 0.1841 0.1199 0.9756
vn 0.1030 0.8315 0.5460
vn 0.1475 0.6063 0.7814
vn 0.1729 0.3621 0.9160
vn 0.0613 0.8600 0.5066
vn -0.0000 -1.0000 -0.0000
vn -0.9377 -0.0000 -0.3473
vn -0.8170 -0.3062 -0.4886
vn -0.9377 -0.0000 0.3473
vn -0.8170 -0.3062 0.4886
vn -0.9794 -0.1988 0.0347
vn -0.9794 -0.1988 -0.0347
vn 0.4540 0.8910 -0.0000
vn 0.1361 0.1092 -0.9847
vn 0.0811 0.8060 -0.5864
vn 0.1125 0.5700 -0.8139
vn 0.1289 0.3327 -0.9342
vn 0.0484 0.8365 -0.5459
vn 0.3485 0.3540 -0.8679
vn 0.1373 0.9296 -0.3420
vn 0.3701 0.1169 -0.9216
vn 0.2108 0.8247 -0.5248
vn 0.2991 0.5964 -0.7449
vn 0.1823 0.9774 -0.1071
vn 0.3728 0.9016 -0.2192
vn 0.1823 0.9774 0.1071
vn 0.3728 0.9016 0.2192
vn 0.2991 0.5964 0.7449
vn 0.3485 0.3540 0.8679
vn 0.1373 0.9296 0.3420
vn 0.3701 0.1169 0.9216
vn 0.2108 0.8247 0.5248
vn 0.1361 0.1092 0.9847
vn 0.0811 0.8060 0.5864
vn 0.1125 0.5700 0.8139
vn 0.1291 0.3333 0.9339
vn 0.0484 0.8365 0.5459
vn -0.8924 -0.0000 -0.4513
vn -0.7293 -0.3368 -0.5955
vn -0.8924 -0.0000 0.4513
vn -0.7293 -0.3368 0.5955
vn -0.9690 -0.2424 0.0469
vn -0.9690 -0.2424 -0.0469
vn -0.3318 0.0702 -0.9407
vn -0.4522 0.6348 -0.6265
vn -0.3946 0.4433 -0.8048
vn -0.3547 0.2587 -0.8985
vn -0.4257 0.7953 0.4315
vn -0.4874 0.8654 0.1166
vn -0.4825 0.8568 -0.1819
vn -0.4257 0.7953 -0.4315
vn -0.3333 0.0849 0.9390
vn -0.4522 0.6348 0.6265
vn -0.3947 0.4433 0.8048
vn -0.3547 0.2587 0.8985
vn 0.0625 0.8542 -0.5162
vn 0.1729 0.3621 -0.9160
vn 0.0625 0.8542 0.5162
vn -0.9364 -0.3509 -0.0000
vn 0.4456 0.8744 0.1919
vn 0.0493 0.8300 -0.5556
vn 0.1291 0.3333 -0.9339
vn 0.1508 0.8085 0.5689
vn 0.0493 0.8300 0.5556
vn -0.7473 -0.3451 -0.5678
vn -0.0000 1.0000 -0.0000
vn -0.3333 0.0849 -0.9390
vn -0.4874 0.8654 -0.1166
vn -0.3318 0.0703 0.9407
vt 0.705366 0.667747
vt 0.803144 0.574843
vt 0.729078 0.574843
vt 0.680060 0.792454
vt 0.729489 0.844190
vt 0.761479 0.792454
vt 0.772228 0.744616
vt 0.691229 0.744616
vt 0.782814 0.667747
vt 0.667610 0.844190
vt 0.602910 0.983751
vt 0.851971 0.744616
vt 0.871616 0.667747
vt 0.790230 0.844190
vt 0.881121 0.574843
vt 0.829690 0.792454
vt 0.928790 0.744616
vt 0.962013 0.667747
vt 0.828635 0.844190
vt 0.972188 0.574843
vt 0.891745 0.792454
vt 0.882351 0.203525
vt 0.973418 0.203525
vt 0.640725 0.026018
vt 0.761000 0.448946
vt 0.724264 0.397327
vt 0.733579 0.389019
vt 0.710383 0.465360
vt 0.683259 0.425521
vt 0.615574 0.444562
vt 0.807625 0.433475
vt 0.756855 0.367402
vt 0.701783 0.414325
vt 0.694212 0.427043
vt 0.778838 0.346278
vt 0.972158 0.377046
vt 0.790840 0.337591
vt 0.905921 0.268949
vt 0.880554 0.405368
vt 0.483343 0.718020
vt 0.564062 0.574843
vt 0.484238 0.574843
vt 0.472933 0.806048
vt 0.528350 0.874925
vt 0.543781 0.820460
vt 0.556858 0.770915
vt 0.478933 0.756590
vt 0.564738 0.718732
vt 0.453909 0.869085
vt 0.401841 0.960756
vt 0.614636 0.784526
vt 0.608366 0.753384
vt 0.568635 0.889115
vt 0.601840 0.723604
vt 0.600703 0.708831
vt 0.608060 0.838573
vt 0.593485 0.916914
vt 0.600341 0.914162
vt 0.626490 0.837958
vt 0.619601 0.824858
vt 0.616853 0.796809
vt 0.479760 0.032060
vt 0.439654 0.203525
vt 0.565293 0.203525
vt 0.531493 0.437332
vt 0.507642 0.372378
vt 0.517179 0.364202
vt 0.475500 0.471978
vt 0.416951 0.408936
vt 0.403977 0.410539
vt 0.568735 0.404239
vt 0.538690 0.346266
vt 0.479012 0.392596
vt 0.471172 0.398617
vt 0.558335 0.329221
vt 0.693043 0.271546
vt 0.578674 0.318225
vt 0.658709 0.241213
vt 0.597577 0.378254
vt 0.313479 0.665002
vt 0.420411 0.574843
vt 0.369076 0.574843
vt 0.276422 0.744508
vt 0.321274 0.819923
vt 0.352458 0.782017
vt 0.380418 0.741883
vt 0.297669 0.698772
vt 0.403764 0.699802
vt 0.239347 0.791651
vt 0.167427 0.848778
vt 0.413787 0.760720
vt 0.418033 0.733036
vt 0.359370 0.842816
vt 0.421470 0.707255
vt 0.429432 0.685548
vt 0.395031 0.826013
vt 0.403983 0.807269
vt 0.412053 0.773161
vt 0.359630 0.870396
vt 0.368291 0.860605
vt 0.438423 0.574843
vt 0.311058 0.026018
vt 0.227007 0.456474
vt 0.184979 0.430485
vt 0.207768 0.415870
vt 0.130082 0.433448
vt 0.119274 0.415965
vt 0.028663 0.467632
vt 0.169030 0.433468
vt 0.140838 0.438750
vt 0.179401 0.473115
vt 0.262242 0.444274
vt 0.224916 0.406558
vt 0.250816 0.398192
vt 0.365644 0.421302
vt 0.264559 0.393291
vt 0.330418 0.385060
vt 0.022773 0.574843
vt 0.278535 0.627807
vt 0.318536 0.574843
vt 0.213602 0.752227
vt 0.240762 0.724311
vt 0.255143 0.684268
vt 0.260417 0.665481
vt 0.272470 0.641077
vt 0.193532 0.747792
vt 0.169644 0.744809
vt 0.224901 0.748209
vt 0.319766 0.203525
vt 0.024004 0.203525
vt 0.421641 0.203525
vt 0.804375 0.203525
vt 0.730308 0.203525
vt 0.603531 0.203525
vt 0.485468 0.203525
vt 0.557581 0.483110
vt 0.602301 0.574843
vt 0.619470 0.846502
vt 0.375785 0.506205
vt 0.459893 0.400716
vt 0.402094 0.816972
vt 0.370306 0.203525
vt 0.104763 0.396756
vt 0.119755 0.479387
vt 0.451636 0.255096
vt 0.249740 0.710795
s 0
usemtl 材質
f 18/1/1 34/2/1 22/3/1
f 10/4/2 26/5/2 28/6/2
f 10/4/3 30/7/3 16/8/3
f 16/8/4 32/9/4 18/1/4
f 6/10/5 4/11/5 26/5/5
f 32/9/6 42/12/6 44/13/6
f 26/5/7 4/11/7 38/14/7
f 34/2/8 44/13/8 47/15/8
f 28/6/9 38/14/9 39/16/9
f 30/7/10 39/16/10 42/12/10
f 44/13/11 55/17/11 57/18/11
f 38/14/12 4/11/12 51/19/12
f 47/15/13 57/18/13 59/20/13
f 39/16/14 51/19/14 53/21/14
f 42/12/15 53/21/15 55/17/15
f 53/21/16 65/12/16 55/17/16
f 55/17/17 66/13/17 57/18/17
f 4/11/18 62/14/18 51/19/18
f 57/18/19 67/15/19 59/20/19
f 51/19/20 63/16/20 53/21/20
f 63/16/21 72/7/21 65/12/21
f 65/12/22 74/9/22 66/13/22
f 4/11/23 68/5/23 62/14/23
f 66/13/24 76/2/24 67/15/24
f 62/14/25 70/6/25 63/16/25
f 76/2/26 85/1/26 87/3/26
f 68/5/27 80/4/27 70/6/27
f 72/7/28 80/4/28 82/8/28
f 74/9/29 82/8/29 85/1/29
f 4/11/30 78/10/30 68/5/30
f 47/22/31 59/23/31 88/24/31
f 80/25/32 90/26/32 91/27/32
f 6/28/33 94/29/33 95/30/33
f 16/31/34 97/32/34 99/27/34
f 101/29/35 78/28/35 96/30/35
f 10/25/36 98/26/36 102/33/36
f 78/28/37 100/34/37 103/33/37
f 82/31/32 92/32/32 104/35/32
f 87/36/32 105/37/32 106/38/32
f 18/39/34 108/37/34 107/35/34
f 108/37/34 22/36/34 109/38/34
f 21/40/1 36/41/1 24/42/1
f 13/43/2 27/44/2 29/45/2
f 13/43/3 31/46/3 14/47/3
f 14/47/4 33/48/4 21/40/4
f 9/49/5 2/50/5 27/44/5
f 31/46/6 99/51/6 97/52/6
f 27/44/7 2/50/7 37/53/7
f 33/48/8 107/54/8 108/55/8
f 29/45/9 37/53/9 40/56/9
f 99/51/10 31/46/10 29/45/10
f 37/53/12 2/50/12 49/57/12
f 37/53/14 49/57/14 95/58/14
f 40/56/15 93/59/15 102/60/15
f 100/59/16 64/56/16 103/60/16
f 2/50/18 61/53/18 49/57/18
f 96/58/38 95/58/38 49/57/38
f 90/61/21 71/45/21 91/51/21
f 75/48/22 92/52/22 73/46/22
f 2/50/23 69/44/23 61/53/23
f 77/41/24 105/55/24 75/48/24
f 61/53/25 71/45/25 64/56/25
f 77/41/26 84/40/26 86/42/26
f 69/44/27 81/43/27 71/45/27
f 73/46/28 81/43/28 83/47/28
f 75/48/29 83/47/29 84/40/29
f 69/44/30 2/50/30 79/49/30
f 89/62/31 131/63/31 36/64/31
f 81/65/32 110/66/32 111/67/32
f 9/68/33 117/69/33 113/70/33
f 14/71/34 120/72/34 119/67/34
f 79/68/35 114/70/35 123/69/35
f 13/65/36 118/66/36 124/73/36
f 79/68/37 122/74/37 125/73/37
f 83/71/32 112/72/32 126/75/32
f 86/76/32 127/77/32 128/78/32
f 21/79/34 130/77/34 129/75/34
f 130/77/34 24/76/34 131/78/34
f 11/80/39 23/81/39 12/82/39
f 7/83/40 15/84/40 17/85/40
f 7/83/41 19/86/41 8/87/41
f 8/87/42 20/88/42 11/80/42
f 5/89/43 3/90/43 15/84/43
f 19/86/44 119/91/44 120/92/44
f 15/84/45 3/90/45 25/93/45
f 20/88/46 129/94/46 130/95/46
f 25/93/47 116/96/47 17/85/47
f 17/85/48 124/97/48 118/98/48
f 113/99/49 25/93/49 3/90/49
f 25/93/50 117/100/50 116/96/50
f 35/93/51 123/100/51 114/99/51
f 123/100/52 35/93/52 121/96/52
f 45/86/53 110/98/53 43/85/53
f 46/88/54 126/94/54 112/92/54
f 3/90/55 41/84/55 35/93/55
f 48/81/56 128/101/56 127/95/56
f 35/93/57 41/84/57 43/85/57
f 48/81/58 56/80/58 58/82/58
f 41/84/59 52/83/59 43/85/59
f 45/86/60 52/83/60 54/87/60
f 46/88/61 54/87/61 56/80/61
f 41/84/62 3/90/62 50/89/62
f 131/63/31 89/62/31 60/102/31
f 54/103/63 134/104/63 133/105/63
f 137/106/64 139/107/64 3/108/64
f 140/105/65 142/104/65 8/103/65
f 3/108/66 143/107/66 144/106/66
f 146/109/67 138/110/67 7/111/67
f 147/109/68 52/111/68 145/110/68
f 56/112/63 132/113/63 149/114/63
f 58/115/63 148/116/63 150/117/63
f 151/114/65 141/113/65 11/112/65
f 152/116/65 11/112/65 12/115/65
f 1/118/69 152/119/69 153/120/69
f 137/121/70 146/122/70 1/118/70
f 146/122/71 140/123/71 1/118/71
f 1/118/72 141/124/72 151/125/72
f 1/118/73 139/126/73 137/121/73
f 1/118/74 136/127/74 139/126/74
f 1/118/75 135/127/75 136/127/75
f 143/126/76 1/118/76 144/121/76
f 1/118/77 148/119/77 149/125/77
f 144/121/78 147/122/78 145/128/78
f 133/123/79 147/122/79 1/118/79
f 1/118/80 132/124/80 133/123/80
f 153/129/31 60/102/31 1/130/31
f 1/130/31 60/102/31 150/129/31
f 48/131/31 60/102/31 128/63/31
f 76/132/31 87/133/31 106/134/31
f 77/64/31 86/135/31 128/63/31
f 18/1/1 32/9/1 34/2/1
f 10/4/81 6/10/81 26/5/81
f 10/4/3 28/6/3 30/7/3
f 16/8/82 30/7/82 32/9/82
f 32/9/6 30/7/6 42/12/6
f 34/2/8 32/9/8 44/13/8
f 28/6/9 26/5/9 38/14/9
f 30/7/10 28/6/10 39/16/10
f 44/13/11 42/12/11 55/17/11
f 47/15/13 44/13/13 57/18/13
f 39/16/14 38/14/14 51/19/14
f 42/12/15 39/16/15 53/21/15
f 53/21/16 63/16/16 65/12/16
f 55/17/17 65/12/17 66/13/17
f 57/18/19 66/13/19 67/15/19
f 51/19/20 62/14/20 63/16/20
f 63/16/21 70/6/21 72/7/21
f 65/12/22 72/7/22 74/9/22
f 66/13/24 74/9/24 76/2/24
f 62/14/25 68/5/25 70/6/25
f 76/2/26 74/9/26 85/1/26
f 68/5/83 78/10/83 80/4/83
f 72/7/28 70/6/28 80/4/28
f 74/9/29 72/7/29 82/8/29
f 88/24/31 109/134/31 34/132/31
f 109/134/31 22/133/31 34/132/31
f 34/132/31 47/22/31 88/24/31
f 91/27/32 92/32/32 82/31/32
f 82/31/32 80/25/32 91/27/32
f 96/30/84 4/136/84 95/30/84
f 4/136/33 6/28/33 95/30/33
f 6/28/33 93/34/33 94/29/33
f 99/27/34 98/26/34 10/25/34
f 10/25/34 16/31/34 99/27/34
f 101/29/35 100/34/35 78/28/35
f 78/28/35 4/136/35 96/30/35
f 102/33/36 93/34/36 6/28/36
f 6/28/36 10/25/36 102/33/36
f 103/33/37 90/26/37 80/25/37
f 80/25/37 78/28/37 103/33/37
f 104/35/32 105/37/32 85/39/32
f 85/39/32 82/31/32 104/35/32
f 87/36/32 85/39/32 105/37/32
f 107/35/34 97/32/34 16/31/34
f 16/31/34 18/39/34 107/35/34
f 108/37/34 18/39/34 22/36/34
f 21/40/1 33/48/1 36/41/1
f 13/43/81 9/49/81 27/44/81
f 13/43/3 29/45/3 31/46/3
f 14/47/82 31/46/82 33/48/82
f 97/52/6 107/54/6 33/48/6
f 33/48/6 31/46/6 97/52/6
f 108/55/8 109/137/8 36/41/8
f 36/41/8 33/48/8 108/55/8
f 29/45/9 27/44/9 37/53/9
f 40/56/10 102/60/10 29/45/10
f 102/60/10 98/61/10 29/45/10
f 98/61/10 99/51/10 29/45/10
f 95/58/14 94/138/14 37/53/14
f 94/138/14 40/56/14 37/53/14
f 40/56/15 94/138/15 93/59/15
f 100/59/16 101/138/16 64/56/16
f 49/57/85 61/53/85 96/58/85
f 61/53/20 64/56/20 101/138/20
f 96/58/20 61/53/20 101/138/20
f 90/61/21 103/60/21 71/45/21
f 103/60/21 64/56/21 71/45/21
f 71/45/21 73/46/21 91/51/21
f 104/54/22 92/52/22 75/48/22
f 92/52/22 91/51/22 73/46/22
f 106/137/24 105/55/24 77/41/24
f 105/55/24 104/54/24 75/48/24
f 61/53/25 69/44/25 71/45/25
f 77/41/26 75/48/26 84/40/26
f 69/44/83 79/49/83 81/43/83
f 73/46/28 71/45/28 81/43/28
f 75/48/29 73/46/29 83/47/29
f 131/63/31 24/135/31 36/64/31
f 36/64/31 109/134/31 89/62/31
f 109/134/31 88/24/31 89/62/31
f 111/67/32 112/72/32 83/71/32
f 83/71/32 81/65/32 111/67/32
f 114/70/84 2/139/84 113/70/84
f 2/139/33 9/68/33 113/70/33
f 9/68/33 115/74/33 116/140/33
f 9/68/33 116/140/33 117/69/33
f 119/67/34 118/66/34 13/65/34
f 13/65/34 14/71/34 119/67/34
f 121/140/35 122/74/35 79/68/35
f 79/68/35 2/139/35 114/70/35
f 123/69/35 121/140/35 79/68/35
f 124/73/36 115/74/36 9/68/36
f 9/68/36 13/65/36 124/73/36
f 125/73/37 110/66/37 81/65/37
f 81/65/37 79/68/37 125/73/37
f 126/75/32 127/77/32 84/79/32
f 84/79/32 83/71/32 126/75/32
f 86/76/32 84/79/32 127/77/32
f 129/75/34 120/72/34 14/71/34
f 14/71/34 21/79/34 129/75/34
f 130/77/34 21/79/34 24/76/34
f 11/80/39 20/88/39 23/81/39
f 7/83/86 5/89/86 15/84/86
f 7/83/41 17/85/41 19/86/41
f 8/87/87 19/86/87 20/88/87
f 120/92/44 129/94/44 20/88/44
f 20/88/44 19/86/44 120/92/44
f 130/95/46 131/101/46 23/81/46
f 23/81/46 20/88/46 130/95/46
f 115/141/47 124/97/47 116/96/47
f 124/97/47 17/85/47 116/96/47
f 17/85/47 15/84/47 25/93/47
f 118/98/48 119/91/48 19/86/48
f 19/86/48 17/85/48 118/98/48
f 113/99/49 117/100/49 25/93/49
f 114/99/88 113/99/88 3/90/88
f 3/90/51 35/93/51 114/99/51
f 111/91/53 110/98/53 45/86/53
f 110/98/53 125/97/53 43/85/53
f 112/92/54 111/91/54 45/86/54
f 45/86/54 46/88/54 112/92/54
f 127/95/56 126/94/56 46/88/56
f 46/88/56 48/81/56 127/95/56
f 43/85/57 125/97/57 121/96/57
f 125/97/57 122/141/57 121/96/57
f 121/96/57 35/93/57 43/85/57
f 48/81/58 46/88/58 56/80/58
f 41/84/89 50/89/89 52/83/89
f 45/86/60 43/85/60 52/83/60
f 46/88/61 45/86/61 54/87/61
f 60/102/31 12/142/31 23/131/31
f 23/131/31 131/63/31 60/102/31
f 133/105/63 132/113/63 54/103/63
f 54/103/63 52/111/63 134/104/63
f 135/143/90 3/108/90 136/143/90
f 3/108/64 5/144/64 137/106/64
f 136/143/64 3/108/64 139/107/64
f 5/144/64 138/110/64 137/106/64
f 7/111/65 8/103/65 142/104/65
f 8/103/65 141/113/65 140/105/65
f 145/110/66 50/144/66 144/106/66
f 50/144/66 3/108/66 144/106/66
f 3/108/66 135/143/66 143/107/66
f 5/144/67 7/111/67 138/110/67
f 7/111/67 142/104/67 146/109/67
f 134/104/68 52/111/68 147/109/68
f 52/111/68 50/144/68 145/110/68
f 149/114/63 148/116/63 56/112/63
f 56/112/63 54/103/63 132/113/63
f 150/117/91 60/145/91 58/115/91
f 58/115/63 56/112/63 148/116/63
f 8/103/65 11/112/65 141/113/65
f 11/112/65 152/116/65 151/114/65
f 12/115/91 60/145/91 153/117/91
f 153/117/65 152/116/65 12/115/65
f 1/118/92 151/125/92 152/119/92
f 137/121/70 138/128/70 146/122/70
f 146/122/71 142/146/71 140/123/71
f 1/118/72 140/123/72 141/124/72
f 1/118/93 143/126/93 135/127/93
f 1/118/94 150/120/94 148/119/94
f 144/121/78 1/118/78 147/122/78
f 133/123/79 134/146/79 147/122/79
f 1/118/80 149/125/80 132/124/80
f 58/142/31 60/102/31 48/131/31
f 60/102/31 89/62/31 128/63/31
f 106/134/31 88/24/31 76/132/31
f 88/24/31 59/23/31 67/22/31
f 76/132/31 88/24/31 67/22/31
f 128/63/31 89/62/31 77/64/31
f 89/62/31 88/24/31 106/134/31
f 77/64/31 89/62/31 106/134/31
